<svg width="24" height="24" viewBox="0 0 24 24" fill="none" xmlns="http://www.w3.org/2000/svg">
<path d="M23.2139 11.8997V12.0935C23.2139 14.6644 22.3354 17.0156 20.8498 18.8888C19.5708 20.5037 17.8397 21.7568 15.8631 22.4673C14.7263 22.8549 13.499 23.0745 12.2329 23.0745C10.954 23.0745 9.70085 22.8549 8.55107 22.4415C6.56158 21.731 4.84338 20.4778 3.57734 18.8501C2.11751 16.9898 1.25195 14.6515 1.25195 12.1064V11.8739C1.30363 9.69063 1.97541 7.6753 3.12518 5.98294C4.53333 3.86425 6.65201 2.28816 9.13242 1.55179C10.1142 1.26757 11.1478 1.11255 12.2329 1.11255C13.3181 1.11255 14.3775 1.26757 15.3593 1.56471C17.8397 2.30108 19.9713 3.89009 21.3665 5.99585C22.5034 7.70114 23.1752 9.71647 23.2139 11.8997Z" fill="white"/>
<path d="M12.2335 23.3328C10.9287 23.3328 9.66265 23.1132 8.47413 22.6869C6.45879 21.9764 4.70184 20.6974 3.38412 19.005C1.82094 17.0155 0.994141 14.6256 0.994141 12.1064V11.8739C1.04582 9.69058 1.70467 7.59774 2.91904 5.84078C4.37887 3.64459 6.56214 2.04266 9.06839 1.30628C10.089 1.00915 11.1483 0.854126 12.2335 0.854126C13.3445 0.854126 14.4168 1.00915 15.4374 1.3192C17.9436 2.06849 20.1269 3.67042 21.5867 5.8537C22.7882 7.63649 23.447 9.72934 23.4858 11.8997V12.1064C23.4858 14.6514 22.646 17.0543 21.07 19.0567C19.7522 20.7362 17.9824 22.0022 15.967 22.7127C14.7527 23.1261 13.4995 23.3328 12.2335 23.3328ZM12.2335 1.37088C11.2 1.37088 10.1923 1.51298 9.2105 1.81012C6.82052 2.50773 4.74059 4.03215 3.34536 6.11208C2.19559 7.80444 1.56257 9.79393 1.51089 11.8739V12.1064C1.51089 14.5222 2.29894 16.7959 3.7846 18.695C5.03772 20.3098 6.71717 21.5242 8.64207 22.2089C9.77892 22.6094 10.9804 22.8161 12.2335 22.8161C13.4479 22.8161 14.6364 22.6094 15.7862 22.2218C17.7111 21.5371 19.4034 20.3357 20.6566 18.7337C22.1681 16.8218 22.9561 14.5351 22.9561 12.0935V11.8997C22.9173 9.83269 22.2843 7.8432 21.1475 6.13791C19.7652 4.05799 17.6852 2.52065 15.2823 1.81012C14.3134 1.5259 13.2928 1.37088 12.2335 1.37088Z" fill="black"/>
<path d="M15.3616 1.56471L12.9846 11.215L12.7649 12.0806L12.7391 12.2098H11.7702L11.7185 12.0031L11.5247 11.1892L9.13477 1.55179C10.1166 1.26757 11.1501 1.11255 12.2353 1.11255C13.3205 1.11255 14.3798 1.26757 15.3616 1.56471Z" fill="black"/>
<path d="M12.3899 11.7318L12.2349 12.2098V12.2227L12.0928 12.6619L11.8732 12.6361L11.0334 12.5844L1.25391 11.8609C1.30558 9.67767 1.97736 7.66233 3.12713 5.96997L11.5244 11.1892L12.2866 11.6542L12.3899 11.7318Z" fill="black"/>
<path d="M12.613 12.4811L12.5355 12.6749L12.2255 13.4501L8.56944 22.4415C6.57995 21.731 4.86175 20.4779 3.5957 18.8501L11.0369 12.5716L11.7216 11.9902L11.825 11.9127L12.2255 12.1969V12.2099H12.2384L12.613 12.4811Z" fill="black"/>
<path d="M20.8654 18.9016C19.5865 20.5164 17.8553 21.7696 15.8788 22.4801L12.2098 13.4628L11.8739 12.636L11.8223 12.5068L12.2227 12.2226V12.2096H12.2357L12.6103 11.9384L12.7783 12.0805L13.4242 12.6231L20.8654 18.9016Z" fill="black"/>
<path d="M23.2188 11.8997L13.4134 12.6103L12.522 12.6749L12.3928 12.6878L12.2378 12.2098V12.1969L12.0957 11.7576L12.2766 11.6414L12.9871 11.2021L21.3714 5.99585C22.5082 7.70113 23.18 9.71647 23.2188 11.8997Z" fill="black"/>
</svg>
