<svg width="218" height="110" viewBox="0 0 218 110" fill="none" xmlns="http://www.w3.org/2000/svg">
  <g>
    <path d="M110 0H0V110H110V0Z" fill="#E427FF"/>
    <g class="rotate">
      <path d="M54.9943 102.417C81.1854 102.417 102.417 81.1849 102.417 54.9939C102.417 28.8028 81.1854 7.5708 54.9943 7.5708C28.8033 7.5708 7.57129 28.8028 7.57129 54.9939C7.57129 81.1849 28.8033 102.417 54.9943 102.417Z" fill="#2AE648"/>
      <path d="M41.851 42.0135L42.7754 57.2799L49.4092 42.0135H56.3427L44.337 67.9738H38.1655L37.1536 52.7574L30.0452 67.9738H23.8737L22.2246 42.0135H28.9458L29.6204 57.2799L36.6789 42.0135H41.851Z" fill="black"/>
      <path d="M60.8272 67.9738H54.0186L58.591 42.0135H65.3996L60.8272 67.9738Z" fill="black"/>
      <path d="M81.0909 49.6718C80.841 48.2351 79.5667 47.0108 77.4554 47.0108C75.4691 47.0108 74.1573 47.9353 74.1573 49.5094C74.1573 50.4463 74.6196 51.0335 75.8938 51.4083L80.5912 52.845C84.2266 53.9443 86.088 56.0556 86.088 59.2288C86.088 65.1505 81.1034 68.3986 75.2692 68.3986C69.0977 68.3986 65.1624 65.4003 64.7002 60.1533H71.5963C71.9336 62.0148 73.4952 62.9392 75.4441 62.9392C77.6054 62.9392 78.9921 62.0023 79.042 60.3657C79.042 59.2663 78.3674 58.6792 76.7558 58.2044L72.5332 56.9801C69.36 56.0931 67.1613 54.4066 67.1613 50.6837C67.1613 45.1868 71.7712 41.5889 77.6054 41.5889C84.2016 41.5889 87.5372 45.0494 87.7996 49.6593H81.0909V49.6718Z" fill="black"/>
    </g>
  </g>
  <g>
    <path d="M220 0H110V110H220V0Z" fill="#2AE648"/>
    <path d="M201.261 19.0516H128.739V90.9483H201.261V19.0516Z" fill="white"/>
    <path d="M201.261 25.7353V25.5105L197.937 27.4219L192.053 24.0363V19.0516H177.449V24.0488L171.577 27.4594L165.693 24.0738L165.681 19.0516H164.257L164.282 24.0738L158.397 27.4594L152.513 24.0738V19.0516H137.922L137.934 24.0738L132.05 27.4843L128.739 25.5729V38.8404L132.05 36.9165L137.934 40.3021L137.959 47.0982L132.075 50.5088L128.752 48.5849V61.7149L132.1 59.791L137.972 63.1766V66.4622V69.7478L132.087 73.1584L128.739 71.2345V84.5519L132.1 82.603L137.984 85.9886V90.9608H139.408H151.164H152.588L152.563 85.9886L158.447 82.603L164.332 85.9886V90.9608H165.756V85.9886L171.64 82.578L177.512 85.9636L177.524 90.9608H178.948H190.717H192.141L192.116 85.9636L198 82.5655L201.273 84.452V84.2521V83.4276V72.034V71.4344V71.2095L197.987 73.1084L192.103 69.7229V63.1391L197.987 59.7535L201.273 61.6649V61.6399V60.8279V49.3969V48.5724L197.975 50.4713L192.091 47.0732V40.2771L197.975 36.8915L201.273 38.8029V38.578V37.766V26.3225V25.7353H201.261ZM158.422 36.904L164.307 40.2896V47.0857L158.422 50.4838L152.538 47.0857V40.2896L158.422 36.904ZM132.749 35.4923V28.921L138.634 25.5355L144.518 28.921V35.4923L138.634 38.9029L132.749 35.4923ZM132.774 58.5417V51.7456L138.659 48.3475L144.543 51.7331V58.5292L138.659 61.9273L132.774 58.5417ZM144.555 81.1663L138.684 84.5769L132.799 81.1663L132.787 74.5951L138.671 71.2095L144.555 74.5951V81.1663ZM145.942 28.9085L151.814 25.498L157.698 28.8836L157.71 35.4673L151.826 38.8654L145.942 35.4798V28.9085ZM145.954 51.7331L151.826 48.3475L157.71 51.7331L157.735 58.5292L151.851 61.9273L145.967 58.5292V51.7331H145.954ZM151.851 84.5519L145.967 81.1663V74.5951L151.839 71.1845L157.723 74.5701L157.735 81.1539L151.851 84.5519ZM164.307 69.7478L158.422 73.1334L152.538 69.7478V63.1641L158.422 59.7785L164.307 63.1641V69.7478ZM172.29 28.8836L178.161 25.498L184.045 28.8836L184.07 35.4548L178.186 38.8654L172.302 35.4548V28.8836H172.29ZM184.07 51.7081V58.5042L178.186 61.9023L172.302 58.5167V51.7206L178.186 48.3225L184.07 51.7081ZM165.718 40.2896L171.59 36.879L177.474 40.2771L177.487 47.0607L171.602 50.4713L165.718 47.0857V40.2896ZM171.615 73.1334L165.731 69.7478V63.1641L171.602 59.766L177.487 63.1516L177.512 69.7229L171.615 73.1334ZM184.095 81.1414L178.211 84.5519L172.327 81.1414V74.5701L178.211 71.1845L184.095 74.5701V81.1414ZM197.263 74.5451L197.275 81.1289L191.391 84.5269L185.507 81.1414V74.5701L191.379 71.1595L197.263 74.5451ZM197.25 51.7081L197.275 58.5042L191.391 61.9023L185.507 58.5042V51.7081L191.379 48.3225L197.25 51.7081ZM197.238 35.4423L191.366 38.8404L185.482 35.4548L185.457 28.896L191.341 25.473L197.225 28.8586V35.4423H197.238Z" fill="black"/>
  </g>
</svg>
