<svg width="26" height="26" viewBox="0 0 26 26" fill="none" xmlns="http://www.w3.org/2000/svg">
<path d="M25.3042 7.99631C25.3042 7.0163 24.9741 5.9274 24.7541 4.94739C24.424 4.07627 23.874 3.42294 23.3239 2.66071C22.7738 2.00737 21.8936 1.57181 21.0135 1.24514C20.0233 0.809577 19.0332 0.700687 17.933 0.700687C16.7228 0.591797 16.0627 0.591797 12.7621 0.591797C9.35155 0.591797 8.80146 0.591797 7.48124 0.700687C6.49108 0.700687 5.39089 1.02736 4.40073 1.24514C3.52058 1.57181 2.86047 2.11626 2.09035 2.66071C1.32022 3.20516 0.990164 4.07627 0.660109 4.94739C0.330055 5.9274 0.110018 6.90741 0.110018 7.99631C0 9.30299 0 9.84744 0 13.223C0 16.5986 0 17.1431 0.110018 18.4497C0.110018 19.4298 0.440073 20.5187 0.660109 21.4987C0.990164 22.3698 1.54026 23.0231 2.09035 23.7854C2.64044 24.4387 3.52058 24.8743 4.40073 25.2009C5.39089 25.5276 6.38106 25.6365 7.48124 25.6365C8.80146 25.7454 9.35155 25.7454 12.7621 25.7454C16.1727 25.7454 16.7228 25.7454 18.043 25.6365C19.0332 25.6365 20.1333 25.3098 21.1235 25.092C22.7738 24.4387 24.204 23.132 24.7541 21.4987C25.1942 20.5187 25.3042 19.5386 25.3042 18.4497C25.3042 17.0342 25.4142 16.5986 25.4142 13.223C25.4142 9.84744 25.4142 9.30299 25.3042 7.99631ZM22.9938 18.232C22.9938 19.1031 22.8838 19.7564 22.5537 20.6275C22.1137 21.7164 21.2335 22.5876 20.1333 23.0231C19.4732 23.3498 18.5931 23.4587 17.7129 23.4587C16.3927 23.4587 16.0627 23.5676 12.6521 23.5676C9.24153 23.5676 8.80146 23.5676 7.59126 23.4587C6.71111 23.4587 6.051 23.3498 5.17086 23.0231C4.62077 22.9142 4.18069 22.4787 3.74062 22.0431C3.30055 21.6076 3.08051 21.172 2.75046 20.6275C2.4204 19.9742 2.31038 19.1031 2.31038 18.232C2.31038 16.9253 2.20036 16.5986 2.20036 13.223C2.20036 9.84744 2.20036 9.41188 2.31038 8.21409C2.31038 7.34297 2.4204 6.68963 2.75046 5.81851C2.86047 5.27406 3.30055 4.8385 3.74062 4.40294C4.18069 3.96738 4.62077 3.7496 5.17086 3.42294C5.83097 3.09627 6.71111 2.98738 7.59126 2.98738C8.91148 2.98738 9.24153 2.87849 12.6521 2.87849C16.0627 2.87849 16.5027 2.87849 17.7129 2.98738C18.5931 2.98738 19.2532 3.09627 20.1333 3.42294C20.6834 3.53183 21.1235 3.96738 21.5636 4.40294C22.0036 4.8385 22.2237 5.27406 22.5537 5.81851C22.8838 6.47185 22.9938 7.34297 22.9938 8.21409C22.9938 9.52077 23.1038 9.84744 23.1038 13.223C23.1038 16.5986 23.2138 16.9253 22.9938 18.232ZM12.7621 6.79852C9.13151 6.79852 6.27104 9.62966 6.27104 13.223C6.27104 16.8164 9.24153 19.6475 12.7621 19.6475C16.2827 19.6475 19.2532 16.7075 19.2532 13.223C19.2532 9.52077 16.3927 6.79852 12.7621 6.79852ZM12.7621 17.3608C10.3417 17.3608 8.4714 15.5097 8.4714 13.1141C8.4714 10.7186 10.3417 8.86743 12.7621 8.86743C15.1825 8.86743 17.0528 10.7186 17.0528 13.1141C17.0528 15.5097 15.0725 17.3608 12.7621 17.3608ZM21.0135 6.47185C21.0135 7.34297 20.3534 7.99631 19.4732 7.99631C18.5931 7.99631 17.933 7.34297 17.933 6.47185C17.933 5.60073 18.7031 4.94739 19.4732 4.94739C20.3534 4.94739 21.0135 5.60073 21.0135 6.47185Z" fill="white"/>
</svg>
