<svg width="27" height="26" viewBox="0 0 27 26" fill="none" xmlns="http://www.w3.org/2000/svg">
<path d="M26.1557 7.65368C26.1557 6.64069 25.8145 5.51515 25.5871 4.50216C25.2459 3.60173 24.6773 2.92641 24.1087 2.13853C23.5401 1.4632 22.6304 1.01299 21.7206 0.675325C20.6971 0.225108 19.6736 0.112554 18.5364 0.112554C17.2855 0 16.6032 0 13.1916 0C9.66623 0 9.09763 0 7.73299 0.112554C6.7095 0.112554 5.5723 0.450216 4.54882 0.675325C3.63905 1.01299 2.95673 1.57576 2.16069 2.13853C1.36464 2.7013 1.02348 3.60173 0.682322 4.50216C0.341161 5.51515 0.11372 6.52814 0.11372 7.65368C0 9.00433 0 9.5671 0 13.0563C0 16.5455 0 17.1082 0.11372 18.4589C0.11372 19.4719 0.454882 20.5974 0.682322 21.6104C1.02348 22.5108 1.59209 23.1861 2.16069 23.974C2.72929 24.6493 3.63905 25.0996 4.54882 25.4372C5.5723 25.7749 6.59578 25.8874 7.73299 25.8874C9.09763 26 9.66623 26 13.1916 26C16.7169 26 17.2855 26 18.6501 25.8874C19.6736 25.8874 20.8108 25.5498 21.8343 25.3247C23.5401 24.6493 25.0185 23.2987 25.5871 21.6104C26.042 20.5974 26.1557 19.5844 26.1557 18.4589C26.1557 16.9957 26.2694 16.5455 26.2694 13.0563C26.2694 9.5671 26.2694 9.00433 26.1557 7.65368ZM23.7676 18.2338C23.7676 19.1342 23.6538 19.8095 23.3127 20.71C22.8578 21.8355 21.948 22.7359 20.8108 23.1861C20.1285 23.5238 19.2187 23.6364 18.309 23.6364C16.9443 23.6364 16.6032 23.7489 13.0778 23.7489C9.55251 23.7489 9.09763 23.7489 7.84671 23.6364C6.93694 23.6364 6.25462 23.5238 5.34486 23.1861C4.77626 23.0736 4.32137 22.6234 3.86649 22.1732C3.41161 21.7229 3.18417 21.2727 2.84301 20.71C2.50185 20.0346 2.38813 19.1342 2.38813 18.2338C2.38813 16.8831 2.27441 16.5455 2.27441 13.0563C2.27441 9.5671 2.27441 9.11688 2.38813 7.87879C2.38813 6.97835 2.50185 6.30303 2.84301 5.4026C2.95673 4.83983 3.41161 4.38961 3.86649 3.93939C4.32137 3.48918 4.77626 3.26407 5.34486 2.92641C6.02718 2.58874 6.93694 2.47619 7.84671 2.47619C9.21135 2.47619 9.55251 2.36364 13.0778 2.36364C16.6032 2.36364 17.0581 2.36364 18.309 2.47619C19.2187 2.47619 19.9011 2.58874 20.8108 2.92641C21.3794 3.03896 21.8343 3.48918 22.2892 3.93939C22.7441 4.38961 22.9715 4.83983 23.3127 5.4026C23.6538 6.07792 23.7676 6.97835 23.7676 7.87879C23.7676 9.22944 23.8813 9.5671 23.8813 13.0563C23.8813 16.5455 23.995 16.8831 23.7676 18.2338ZM13.1916 6.41558C9.43879 6.41558 6.48206 9.34199 6.48206 13.0563C6.48206 16.7706 9.55251 19.697 13.1916 19.697C16.8306 19.697 19.9011 16.658 19.9011 13.0563C19.9011 9.22944 16.9443 6.41558 13.1916 6.41558ZM13.1916 17.3333C10.6897 17.3333 8.75647 15.4199 8.75647 12.9437C8.75647 10.4675 10.6897 8.55411 13.1916 8.55411C15.6934 8.55411 17.6267 10.4675 17.6267 12.9437C17.6267 15.4199 15.5797 17.3333 13.1916 17.3333ZM21.7206 6.07792C21.7206 6.97835 21.0383 7.65368 20.1285 7.65368C19.2187 7.65368 18.5364 6.97835 18.5364 6.07792C18.5364 5.17749 19.3325 4.50216 20.1285 4.50216C21.0383 4.50216 21.7206 5.17749 21.7206 6.07792Z" fill="#020103"/>
</svg>
