<svg width="26" height="26" viewBox="0 0 26 26" fill="none" xmlns="http://www.w3.org/2000/svg">
<path d="M5.72093 3.42294C5.72093 4.94739 4.73077 6.14518 2.86046 6.14518C1.10017 6.14518 0 4.94739 0 3.42294C0 1.89848 1.10017 0.591797 2.86046 0.591797C4.62075 0.591797 5.72093 1.89848 5.72093 3.42294ZM0.110008 25.7454V7.56075H5.72093V25.7454H0.110008Z" fill="white"/>
<path d="M8.5817 13.7675C8.5817 11.5897 8.47168 9.84747 8.47168 8.21412H13.5325L13.7526 10.6097H13.8626C14.5227 9.5208 16.283 7.77856 19.2535 7.77856C22.8841 7.77856 25.5245 10.1741 25.5245 15.292V25.7454H19.9136V16.1631C19.9136 13.9853 19.0334 12.2431 17.0531 12.2431C15.5129 12.2431 14.8527 13.4408 14.4127 14.4208C14.3026 14.7475 14.1926 15.292 14.1926 15.7275V25.7454H8.5817V13.7675Z" fill="white"/>
</svg>
