<?xml version="1.0" encoding="utf-8"?>
<!-- Generator: Adobe Illustrator 25.0.0, SVG Export Plug-In . SVG Version: 6.00 Build 0)  -->
<svg version="1.1" id="Layer_1" xmlns="http://www.w3.org/2000/svg" xmlns:xlink="http://www.w3.org/1999/xlink" x="0px" y="0px"
	 viewBox="0 0 1000 500" style="enable-background:new 0 0 1000 500;" xml:space="preserve">
<style type="text/css">
	.st0{fill:#E427FF;}
	.st1{fill:#2AE648;}
	.st2{fill:#FFFFFF;}
</style>
<rect y="0" class="st0" width="500" height="500"/>
<circle class="st1" cx="250" cy="250" r="215.5"/>
<g>
	<path d="M198.8,196.2l4.2,69.4l30.2-69.4h31.5l-54.6,118h-28.1l-4.6-69.2l-32.3,69.2h-28.1l-7.5-118h30.6l3.1,69.4l32.1-69.4H198.8
		z"/>
	<path d="M285.1,314.2h-30.9l20.8-118h31L285.1,314.2z"/>
	<path d="M377.2,231c-1.1-6.5-6.9-12.1-16.5-12.1c-9,0-15,4.2-15,11.3c0,4.2,2.1,6.9,7.9,8.6l21.3,6.5c16.5,5,25,14.6,25,29
		c0,26.9-22.7,41.7-49.2,41.7c-28.1,0-45.9-13.6-48-37.5h31.3c1.5,8.5,8.6,12.7,17.5,12.7c9.8,0,16.1-4.2,16.3-11.7
		c0-5-3.1-7.7-10.4-9.8l-19.2-5.6c-14.4-4-24.4-11.7-24.4-28.6c0-25,21-41.3,47.5-41.3c30,0,45.2,15.8,46.3,36.7L377.2,231z"/>
</g>
<rect x="500" class="st1" width="500" height="500"/>
<rect x="585.2" y="86.6" class="st2" width="329.7" height="326.8"/>
<path d="M914.8,117v-1l-15.1,8.7L873,109.2V86.6h-66.3v22.7L780,124.8l-26.8-15.4V86.6h-6.5l0.1,22.8L720,124.8l-26.7-15.4V86.6
	h-66.4l0,22.8l-26.7,15.5l0,0l-15.1-8.7v60.3l15.1-8.7l26.8,15.4l0.1,30.9l-26.8,15.5l-15.1-8.7v59.7l15.2-8.7l26.7,15.4v14.9v15
	l-26.7,15.5l-15.2-8.8v60.5l15.2-8.9l26.7,15.4v22.6h66.4l-0.1-22.6l26.8-15.4l26.8,15.4v22.6h6.5v-22.6l26.7-15.5l26.7,15.4v22.7
	h66.4l-0.1-22.7l26.7-15.4l14.9,8.6v-4.7l0,0v-51.8l0,0v-3.7l-15,8.6l-26.7-15.4V287l26.7-15.4l15,8.7v-3.9l0,0v-51.9l0,0v-3.8
	l-15,8.6L873,213.9V183l26.8-15.4l15,8.7v-4.7l0,0v-52l0,0L914.8,117z M720.1,167.8l26.7,15.4V214l-26.7,15.4L693.3,214v-30.8
	L720.1,167.8z M603.4,161.3v-29.9l26.8-15.4l0,0l26.8,15.4v29.9l-26.7,15.5L603.4,161.3z M603.5,266.1v-30.9l26.7-15.4l26.7,15.4
	V266l-26.7,15.4L603.5,266.1z M657.1,368.9l-26.7,15.5l-26.8-15.5V339l26.7-15.4l26.8,15.4L657.1,368.9z M663.4,131.4l26.7-15.5
	l26.7,15.4l0,29.9l-26.7,15.4l-26.7-15.4L663.4,131.4z M663.4,235.2l26.7-15.4l26.7,15.4l0.1,30.9l-26.8,15.4L663.4,266V235.2z
	 M690.3,384.3l-26.8-15.4V339l26.7-15.5l0,0L717,339v29.9L690.3,384.3z M746.9,317l-26.7,15.4L693.4,317v-29.9l26.7-15.4l26.7,15.4
	L746.9,317z M783.2,131.3l26.7-15.4l26.7,15.4l0.1,29.9l-26.8,15.5l-26.7-15.5L783.2,131.3z M836.7,235v30.9L810,281.4L783.3,266
	v-30.9l26.7-15.4L836.7,235z M753.3,183.1l26.7-15.5l26.7,15.4v30.8L780,229.4L753.3,214V183.1z M780.1,332.4L753.3,317v-29.9
	l26.7-15.4l26.7,15.4l0.1,29.9L780.1,332.4z M836.8,368.8L810,384.3l-26.7-15.5v-29.9l26.7-15.4l0,0l26.8,15.4L836.8,368.8z
	 M896.7,338.8v29.9L870,384.2l-26.8-15.4v-29.9l26.7-15.5L896.7,338.8z M896.6,235l0.1,30.9l-26.8,15.5l-26.7-15.5V235l26.7-15.4
	L896.6,235z M896.5,161.1l-26.7,15.4l-26.7-15.4l-0.1-29.8l26.7-15.5l0,0l26.8,15.4L896.5,161.1z"/>
</svg>
