<svg width="26" height="21" viewBox="0 0 26 21" fill="none" xmlns="http://www.w3.org/2000/svg">
  <g>
    <path d="M25.3039 12.7254C25.3039 12.7073 25.3039 12.6876 25.3022 12.6695C25.2858 12.5561 25.2168 12.4592 25.1181 12.4033L14.684 6.56091C13.2641 5.76549 11.7226 5.26753 10.1054 5.08182L10.0726 5.07854C7.83422 4.82052 5.3017 5.73098 3.29836 7.51574C1.20135 9.38267 0 11.9563 0 14.5743H0.00493028C0.00328686 14.6153 0 14.6564 0 14.6992C0 17.682 2.51444 19.9006 6.56221 20.489C6.78571 20.5218 7.01251 20.5383 7.23766 20.5383C8.27466 20.5383 9.31988 20.1964 10.2961 19.5308C11.1835 18.9261 11.9839 18.0649 12.5279 17.1364L20.4344 19.6278C20.5461 19.6623 20.6694 19.6426 20.7647 19.5736C20.8157 19.5358 20.8535 19.4881 20.8797 19.4322L25.2036 14.8553C25.2693 14.7863 25.3039 14.6959 25.3039 14.6022V12.7254ZM3.78974 8.06793C5.63696 6.42122 7.95419 5.57814 9.98547 5.81315L10.0183 5.81643C11.5385 5.99228 12.9864 6.45901 14.3208 7.20677L24.3392 12.8174L20.4689 16.9145L8.90409 10.8026C8.9008 10.801 8.89587 10.7977 8.89094 10.796C6.69039 9.73765 3.51694 9.37281 1.34268 11.5142C1.85872 10.2323 2.69193 9.04577 3.78974 8.06793ZM20.9159 18.3147V17.5176L24.566 13.6556V14.4526L20.9159 18.3147Z" fill="black"/>
    <path d="M15.9698 8.74337L13.411 7.3103L10.1816 10.7007L12.7996 12.0713L15.9698 8.74337Z" fill="black"/>
    <path d="M18.6175 0.0692508L16.3105 4.46753L16.9655 4.81105L19.2724 0.412768L18.6175 0.0692508Z" fill="black"/>
    <path d="M14.569 0.000151782L13.8301 0.0300293L13.9848 3.85615L14.7237 3.82627L14.569 0.000151782Z" fill="black"/>
    <path d="M21.8064 3.79813L18.5703 5.84521L18.9657 6.4702L22.2017 4.42312L21.8064 3.79813Z" fill="black"/>
  </g>
</svg>
