<svg width="20" height="20" viewBox="0 0 20 20" fill="none" xmlns="http://www.w3.org/2000/svg">
  <g>
    <path d="M12.7348 0.412842C13.0591 0.510909 13.3738 0.623213 13.6443 0.83991C14.2027 1.28754 14.4478 1.88069 14.451 2.57982C14.4573 4.22324 14.4637 5.86825 14.4494 7.51167C14.4399 8.62205 13.8057 9.42874 12.8139 9.65176C11.6181 9.92066 10.4334 9.06652 10.3148 7.85174C10.2958 7.66035 10.2879 7.47055 10.2895 7.27916C10.2895 5.72431 10.2879 4.16946 10.291 2.61462C10.2926 2.05627 10.4334 1.54536 10.8098 1.11355C11.0772 0.806694 11.4062 0.601068 11.7937 0.482438C11.8633 0.460294 11.936 0.436568 12.0072 0.412842C12.2508 0.412842 12.4928 0.412842 12.7348 0.412842Z" fill="black"/>
    <path d="M0 7.29496C0.11863 6.8584 0.291039 6.45347 0.632694 6.13871C1.02338 5.77807 1.47734 5.57087 2.01197 5.57087C3.76453 5.5677 5.51709 5.56612 7.26966 5.57087C8.28513 5.57403 9.14085 6.37439 9.26423 7.38195C9.40816 8.55402 8.51132 9.69287 7.19215 9.70078C5.48388 9.71027 3.77718 9.7071 2.06891 9.70236C1.09614 9.6992 0.275222 9.03803 0.0442886 8.09057C0.0316347 8.04154 0.0142356 7.99408 0 7.94505C0 7.72835 0 7.51166 0 7.29496Z" fill="black"/>
    <path d="M7.53393 0.412842C7.86135 0.499837 8.17928 0.604232 8.4545 0.814603C9.0176 1.24483 9.27226 1.8285 9.28807 2.51971C9.30231 3.11761 9.28649 3.71709 9.2944 4.31657C9.29756 4.4953 9.22955 4.5475 9.05872 4.54592C8.44026 4.53801 7.8218 4.56015 7.20493 4.53801C6.39033 4.51112 5.75764 4.14732 5.38277 3.41181C5.01106 2.67947 5.06642 1.95503 5.53145 1.27805C5.81458 0.863637 6.21634 0.601068 6.70194 0.468203C6.76362 0.450803 6.82373 0.431823 6.88383 0.412842C7.10053 0.412842 7.31723 0.412842 7.53393 0.412842Z" fill="black"/>
    <path d="M0 12.5339C0.0964859 12.0625 0.27364 11.6339 0.634276 11.2986C1.02338 10.9379 1.47576 10.7291 2.01197 10.726C2.64941 10.7228 3.28685 10.7291 3.9227 10.7212C4.09037 10.7196 4.14415 10.7766 4.14257 10.9427C4.13466 11.5864 4.1568 12.2302 4.13308 12.8724C4.10302 13.7139 3.68386 14.3292 2.92305 14.674C2.1306 15.033 1.38086 14.9049 0.711781 14.3466C0.302112 14.0049 0.0949041 13.5478 0 13.0306C0 12.8645 0 12.7 0 12.5339Z" fill="black"/>
    <path d="M14.9347 10.7273C15.7888 10.7273 16.643 10.7289 17.4955 10.7273C18.3607 10.7257 18.9982 11.1243 19.3715 11.882C19.7542 12.6586 19.6562 13.4226 19.1121 14.1043C18.7119 14.6073 18.1646 14.8604 17.5272 14.8635C15.8062 14.8746 14.0869 14.8746 12.366 14.8651C11.2224 14.8588 10.3018 13.9588 10.2891 12.8152C10.2796 11.5909 11.2635 10.751 12.2584 10.7289C12.29 10.7289 12.3217 10.7273 12.3533 10.7273C13.2138 10.7273 14.0742 10.7273 14.9347 10.7273Z" fill="black"/>
    <path d="M5.15153 15.3431C5.15153 14.4574 5.14362 13.5732 5.15311 12.6874C5.16576 11.6435 6.07526 10.7688 7.11446 10.7197C8.18846 10.6691 9.29093 11.4995 9.29251 12.8551C9.29409 14.5364 9.30042 16.2178 9.29093 17.8992C9.28302 19.4177 7.82782 20.3952 6.41533 19.8448C5.69881 19.5648 5.15944 18.8071 5.15311 18.0368C5.1452 17.14 5.15153 16.2416 5.15153 15.3431Z" fill="black"/>
    <path d="M11.5625 15.8569C11.8852 15.8759 12.2806 15.8253 12.6729 15.887C13.5618 16.0246 14.2562 16.7032 14.408 17.5889C14.5567 18.4526 14.1186 19.3462 13.3419 19.7591C12.5527 20.1798 11.5641 20.0406 10.9187 19.4111C10.4806 18.9824 10.2924 18.4462 10.286 17.842C10.2797 17.2568 10.2892 16.6699 10.2813 16.0847C10.2797 15.9091 10.3414 15.849 10.5154 15.8538C10.8412 15.8648 11.1655 15.8569 11.5625 15.8569Z" fill="black"/>
    <path d="M15.4388 8.47967C15.4388 8.1997 15.4373 7.91973 15.4388 7.63818C15.4452 6.44714 16.3515 5.55504 17.5457 5.56453C18.6988 5.57244 19.6368 6.56735 19.5783 7.71885C19.5229 8.80076 18.6403 9.67546 17.5536 9.70235C16.9178 9.71817 16.2803 9.70235 15.6429 9.70868C15.4831 9.71026 15.4325 9.64541 15.4357 9.49198C15.4436 9.15507 15.4388 8.81816 15.4388 8.47967Z" fill="black"/>
  </g>
</svg>
