<svg width="30" height="18" viewBox="0 0 30 18" fill="none" xmlns="http://www.w3.org/2000/svg">
<path d="M29.825 6.95555C29.4078 4.46176 27.8603 3.21394 27.2534 3.21394C26.6446 3.21394 26.3658 5.13168 25.7571 5.85129C25.1483 6.5709 24.1678 6.37949 22.4363 6.1384C20.7068 5.89914 20.8926 5.17953 21.7346 4.98812C22.5767 4.79672 23.8852 3.3575 24.2133 2.87714C24.5414 2.39679 23.0451 0.622612 22.3889 0.114652C21.7346 -0.393308 21.0804 0.861868 19.5366 2.39679C17.9929 3.93171 17.0579 3.88386 17.0579 3.88386C15.2809 3.83601 15.1406 5.08199 15.1406 5.08199C13.9249 4.55378 13.0829 6.23226 13.0829 6.23226C11.4937 6.13655 7.06728 8.34324 5.0096 9.38308C2.95192 10.4229 1.36268 10.5499 0.52064 11.2198C-0.321396 11.8916 0.111001 12.9462 0.111001 12.9462C0.619257 14.032 1.65473 14.759 2.9633 15.2357C3.17002 17.3853 3.51518 17.6393 3.63086 17.7221C3.8243 17.862 4.16567 17.9117 4.55255 17.9117C4.94892 17.9117 5.39269 17.8601 5.77768 17.7976C5.94836 17.7699 6.08491 17.6466 6.12473 17.4828C6.15318 17.3632 6.37317 16.4412 6.46799 15.9479C6.71643 15.97 6.96677 15.9884 7.2171 16.005L7.45416 17.17C7.5414 17.6025 7.89225 17.9227 8.32844 17.9687C8.51809 17.989 8.69636 18 8.86325 18C9.18185 18 9.45684 17.9632 9.68252 17.8877C10.4487 17.6338 10.5359 16.4724 10.5416 16.0197C12.7055 15.9295 14.5868 15.6829 15.4668 15.5817C16.5326 15.4602 18.2963 15.3903 20.1169 15.3387C20.1814 16.5313 20.3938 17.2436 20.7447 17.4534C20.9685 17.5877 21.4691 17.6706 21.9622 17.6706C22.461 17.6706 22.9541 17.5859 23.1494 17.3853C23.2234 17.3098 23.4149 17.1074 23.7658 15.2467C24.1792 15.2357 24.5661 15.2246 24.915 15.2136C25.1255 17.5104 25.4062 17.5877 25.6528 17.654C25.6622 17.6558 26.2767 17.7699 26.8627 17.7699C27.2287 17.7699 27.5853 17.7258 27.7749 17.5822C27.8887 17.4957 28.158 17.2933 28.4937 15.1602C29 15.1676 29.3338 15.1124 29.4912 14.8124C29.825 14.1977 30.2422 9.44934 29.825 6.95555ZM15.7968 6.5709L22.5293 13.4762H20.5892L14.2417 6.96659L15.7968 6.5709ZM5.36235 17.0264C4.84651 17.0908 4.34773 17.1074 4.16377 17.0632C4.05757 16.8479 3.9362 16.1853 3.85465 15.5173C4.41411 15.6645 5.00771 15.7768 5.62217 15.8596C5.55958 16.1724 5.44579 16.673 5.36235 17.0264ZM9.40943 17.1092C9.19323 17.181 8.84238 17.1957 8.42516 17.1516C8.36258 17.1442 8.30947 17.089 8.2943 17.0154L8.09897 16.0473C8.63377 16.062 9.16668 16.062 9.69011 16.051C9.67873 16.5792 9.5346 17.0669 9.40943 17.1092ZM16.709 13.4781L11.3988 8.0322L12.899 7.57762L18.651 13.4762H16.709V13.4781ZM22.5293 16.7982C22.2448 16.87 21.4653 16.8681 21.2264 16.7687C21.124 16.5957 21.0178 15.9718 20.976 15.3222C21.6322 15.3056 22.2827 15.2909 22.8991 15.2762C22.7739 15.9019 22.6184 16.5608 22.5293 16.7982ZM27.2344 16.9289C26.9917 16.9749 26.362 16.9381 26.0396 16.8921C25.9486 16.5957 25.8386 15.8467 25.7741 15.186C25.9638 15.1768 26.1326 15.1657 26.2729 15.1547C26.7907 15.1142 27.2458 15.1197 27.6422 15.1344C27.5246 15.8467 27.3482 16.6638 27.2344 16.9289Z" fill="black"/>
</svg>
