<svg width="29" height="23" viewBox="0 0 29 23" fill="none" xmlns="http://www.w3.org/2000/svg">
  <g>
    <path d="M6.27704 4.0415C-1.92695 10.0083 -2.22558 24.2539 17.4647 20.0772M17.4647 20.0772L15.2277 19.3313M17.4647 20.0772L15.9735 21.5688" stroke="black" stroke-linecap="round" stroke-linejoin="round"/>
    <path d="M8.51562 1.43115L12.9907 5.90622" stroke="black" stroke-miterlimit="10" stroke-linecap="round"/>
    <path d="M8.51562 5.90622L12.9907 1.43115" stroke="black" stroke-miterlimit="10" stroke-linecap="round"/>
    <path d="M22.3136 20.8232C23.7553 20.8232 24.924 19.6545 24.924 18.2127C24.924 16.771 23.7553 15.6023 22.3136 15.6023C20.8719 15.6023 19.7031 16.771 19.7031 18.2127C19.7031 19.6545 20.8719 20.8232 22.3136 20.8232Z" fill="black" stroke="black" stroke-miterlimit="10"/>
    <path d="M10.6037 15.0315L8.24226 15.306L7.02344 15.4237L8.01373 14.2472L9.30872 12.6001L10.6037 15.0315Z" fill="#F1F0F0" stroke="black" stroke-width="0.5" stroke-miterlimit="10" stroke-linecap="round" stroke-linejoin="round"/>
    <path d="M25.1752 3.9072L9.3418 12.5923L10.6133 15.0498L26.4467 6.3647L25.1752 3.9072Z" fill="black" stroke="black" stroke-width="0.5" stroke-miterlimit="10" stroke-linecap="round" stroke-linejoin="round"/>
    <path d="M27.8566 4.01149C28.0089 4.36444 28.047 4.75661 27.9328 5.10956C27.8185 5.46251 27.59 5.73703 27.2853 5.93311L26.4854 6.36449L25.2285 3.89384L25.9903 3.46246C26.6759 3.0703 27.5138 3.34481 27.8566 4.01149Z" stroke="black" stroke-width="0.5" stroke-miterlimit="10" stroke-linecap="round" stroke-linejoin="round"/>
    <path d="M10.834 13.3454L24.8885 5.65894" stroke="black" stroke-width="0.5" stroke-miterlimit="10" stroke-linecap="round" stroke-linejoin="round"/>
    <path d="M8.27937 15.1493C8.27937 15.1885 8.27937 15.2669 8.27937 15.3062L7.06055 15.4238L8.01275 14.2473C8.1651 14.4826 8.27937 14.7963 8.27937 15.1493Z" fill="black" stroke="black" stroke-width="0.5" stroke-miterlimit="10" stroke-linecap="round" stroke-linejoin="round"/>
  </g>
</svg>
