<svg width="220" height="43" viewBox="0 0 220 43" fill="none" xmlns="http://www.w3.org/2000/svg">
<path d="M220 0H0V43H220V0Z" fill="white"/>
<path d="M0.128662 24.8247H8.50593L14.8211 0H8.50593H6.57272L0.128662 24.8247Z" fill="black"/>
<path d="M14.8213 0L21.1365 24.8247H29.3849L23.0697 0H21.1365H14.8213Z" fill="black"/>
<path d="M33.1226 24.8247H41.4998L47.815 0H41.4998H39.5666L33.1226 24.8247Z" fill="black"/>
<path d="M47.8149 0L54.1301 24.8247H62.5074L56.0633 0H54.1301H47.8149Z" fill="black"/>
<path d="M66.1162 24.8247H74.4935L80.8087 0H74.4935H72.5603L66.1162 24.8247Z" fill="black"/>
<path d="M80.8083 0L87.1235 24.8247H95.5008L89.0567 0H87.1235H80.8083Z" fill="black"/>
<path d="M6.57331 24.8247L1.93359 43H10.182L14.8217 24.8247H6.57331Z" fill="black"/>
<path d="M14.8213 24.8247L19.461 43H27.7094L23.0697 24.8247H14.8213Z" fill="black"/>
<path d="M39.5665 24.8247L34.9268 43H43.1751L47.8149 24.8247H39.5665Z" fill="black"/>
<path d="M47.8149 24.8247L52.4547 43H60.703L56.0633 24.8247H47.8149Z" fill="black"/>
<path d="M72.5601 24.8247L67.9204 43H76.1688L80.8085 24.8247H72.5601Z" fill="black"/>
<path d="M80.8086 24.8247L85.4483 43H93.6967L89.057 24.8247H80.8086Z" fill="black"/>
<path d="M95.6296 24.8247H103.878L110.193 0H103.878H101.945L95.6296 24.8247Z" fill="black"/>
<path d="M110.193 0L116.637 24.8247H124.886L118.571 0H116.637H110.193Z" fill="black"/>
<path d="M128.624 24.8247H136.872L143.187 0H136.872H134.939L128.624 24.8247Z" fill="black"/>
<path d="M143.316 0L149.631 24.8247H157.879L151.564 0H149.631H143.316Z" fill="black"/>
<path d="M161.617 24.8247H169.865L176.18 0H169.865H167.932L161.617 24.8247Z" fill="black"/>
<path d="M176.31 0L182.625 24.8247H190.873L184.558 0H182.625H176.31Z" fill="black"/>
<path d="M101.945 24.8247L97.3052 43H105.554L110.193 24.8247H101.945Z" fill="black"/>
<path d="M110.193 24.8247L114.962 43H123.21L118.571 24.8247H110.193Z" fill="black"/>
<path d="M134.939 24.8247L130.299 43H138.547L143.187 24.8247H134.939Z" fill="black"/>
<path d="M143.316 24.8247L147.956 43H156.204L151.564 24.8247H143.316Z" fill="black"/>
<path d="M167.932 24.8247L163.292 43H171.541L176.181 24.8247H167.932Z" fill="black"/>
<path d="M176.31 24.8247L180.949 43H189.198L184.558 24.8247H176.31Z" fill="black"/>
<path d="M190.615 24.8247H198.863L205.179 0H198.863H196.93L190.615 24.8247Z" fill="black"/>
<path d="M205.179 0L211.494 24.8247H219.871L213.427 0H211.494H205.179Z" fill="black"/>
<path d="M196.93 24.8247L192.291 43H200.539L205.179 24.8247H196.93Z" fill="black"/>
<path d="M205.179 24.8247L209.818 43H218.067L213.427 24.8247H205.179Z" fill="black"/>
</svg>
