<svg width="220" height="43" viewBox="0 0 220 43" fill="none" xmlns="http://www.w3.org/2000/svg">
<path d="M8.49547e-10 -5.72205e-05L0 22.0811L35.8947 22.0811L35.8947 -5.72186e-05L8.49547e-10 -5.72205e-05Z" fill="white"/>
<path d="M35.8945 -5.72205e-05L35.8945 22.0811L72.9472 22.0811L72.9472 -5.7219e-05L35.8945 -5.72205e-05Z" fill="black"/>
<path d="M108.842 -5.72205e-05L108.842 22.0811L147.052 22.0811L147.052 -5.72189e-05L108.842 -5.72205e-05Z" fill="black"/>
<path d="M181.789 -5.72205e-05L181.789 22.0811L220 22.0811L220 -5.72189e-05L181.789 -5.72205e-05Z" fill="black"/>
<path d="M72.9473 43L72.9473 22.0811L35.8946 22.0811L35.8946 43L72.9473 43Z" fill="white"/>
<path d="M147.053 43L147.053 22.0811L108.842 22.0811L108.842 43L147.053 43Z" fill="white"/>
<path d="M220 43L220 22.0811L181.789 22.0811L181.789 43L220 43Z" fill="white"/>
<path d="M35.8945 43L35.8945 22.0811L-0.000205994 22.0811L-0.000205997 43L35.8945 43Z" fill="black"/>
<path d="M72.9473 -5.72205e-05L72.9473 22.0811L108.842 22.0811L108.842 -5.7219e-05L72.9473 -5.72205e-05Z" fill="white"/>
<path d="M147.053 -5.72205e-05L147.053 22.0811L181.79 22.0811L181.79 -5.72191e-05L147.053 -5.72205e-05Z" fill="white"/>
<path d="M108.842 43L108.842 22.0811L72.9471 22.0811L72.9471 43L108.842 43Z" fill="black"/>
<path d="M181.789 43L181.789 22.0811L147.052 22.0811L147.052 43L181.789 43Z" fill="black"/>
<path d="M17.9474 19.7566C22.7435 19.7566 26.6316 15.8542 26.6316 11.0403C26.6316 6.22648 22.7435 2.3241 17.9474 2.3241C13.1512 2.3241 9.26318 6.22648 9.26318 11.0403C9.26318 15.8542 13.1512 19.7566 17.9474 19.7566Z" fill="black"/>
<path d="M54.9996 19.7566C59.7958 19.7566 63.6838 15.8542 63.6838 11.0403C63.6838 6.22648 59.7958 2.3241 54.9996 2.3241C50.2035 2.3241 46.3154 6.22648 46.3154 11.0403C46.3154 15.8542 50.2035 19.7566 54.9996 19.7566Z" fill="white"/>
<path d="M127.947 19.7566C132.744 19.7566 136.632 15.8542 136.632 11.0403C136.632 6.22648 132.744 2.3241 127.947 2.3241C123.151 2.3241 119.263 6.22648 119.263 11.0403C119.263 15.8542 123.151 19.7566 127.947 19.7566Z" fill="white"/>
<path d="M200.895 19.7566C205.691 19.7566 209.579 15.8542 209.579 11.0403C209.579 6.22648 205.691 2.3241 200.895 2.3241C196.099 2.3241 192.21 6.22648 192.21 11.0403C192.21 15.8542 196.099 19.7566 200.895 19.7566Z" fill="white"/>
<path d="M54.9996 41.8379C59.7958 41.8379 63.6838 37.9355 63.6838 33.1216C63.6838 28.3078 59.7958 24.4054 54.9996 24.4054C50.2035 24.4054 46.3154 28.3078 46.3154 33.1216C46.3154 37.9355 50.2035 41.8379 54.9996 41.8379Z" fill="black"/>
<path d="M127.947 41.8379C132.744 41.8379 136.632 37.9355 136.632 33.1216C136.632 28.3078 132.744 24.4054 127.947 24.4054C123.151 24.4054 119.263 28.3078 119.263 33.1216C119.263 37.9355 123.151 41.8379 127.947 41.8379Z" fill="black"/>
<path d="M200.895 41.8379C205.691 41.8379 209.579 37.9355 209.579 33.1216C209.579 28.3078 205.691 24.4054 200.895 24.4054C196.099 24.4054 192.21 28.3078 192.21 33.1216C192.21 37.9355 196.099 41.8379 200.895 41.8379Z" fill="black"/>
<path d="M17.9474 41.8379C22.7435 41.8379 26.6316 37.9355 26.6316 33.1216C26.6316 28.3078 22.7435 24.4054 17.9474 24.4054C13.1512 24.4054 9.26318 28.3078 9.26318 33.1216C9.26318 37.9355 13.1512 41.8379 17.9474 41.8379Z" fill="white"/>
<path d="M90.8947 19.7566C95.6908 19.7566 99.5789 15.8542 99.5789 11.0403C99.5789 6.22648 95.6908 2.3241 90.8947 2.3241C86.0985 2.3241 82.2104 6.22648 82.2104 11.0403C82.2104 15.8542 86.0985 19.7566 90.8947 19.7566Z" fill="black"/>
<path d="M165 19.7566C169.796 19.7566 173.684 15.8542 173.684 11.0403C173.684 6.22648 169.796 2.3241 165 2.3241C160.203 2.3241 156.315 6.22648 156.315 11.0403C156.315 15.8542 160.203 19.7566 165 19.7566Z" fill="black"/>
<path d="M90.8947 41.8379C95.6908 41.8379 99.5789 37.9355 99.5789 33.1216C99.5789 28.3078 95.6908 24.4054 90.8947 24.4054C86.0985 24.4054 82.2104 28.3078 82.2104 33.1216C82.2104 37.9355 86.0985 41.8379 90.8947 41.8379Z" fill="white"/>
<path d="M165 41.8379C169.796 41.8379 173.684 37.9355 173.684 33.1216C173.684 28.3078 169.796 24.4054 165 24.4054C160.203 24.4054 156.315 28.3078 156.315 33.1216C156.315 37.9355 160.203 41.8379 165 41.8379Z" fill="white"/>
</svg>
