<svg width="220" height="43" viewBox="0 0 220 43" fill="none" xmlns="http://www.w3.org/2000/svg">
<path d="M20.9113 10.75L31.3667 10.75L31.3667 3.05176e-05L20.9113 2.95778e-05L20.9113 10.75Z" fill="black"/>
<path d="M10.4557 10.75L20.9111 10.75L20.9111 3.05176e-05L10.4557 2.95778e-05L10.4557 10.75Z" fill="black"/>
<path d="M10.4557 21.4999L20.9111 21.4999L20.9111 10.7499L10.4557 10.7499L10.4557 21.4999Z" fill="black"/>
<path d="M0.000121117 10.75L10.4556 10.75L10.4556 3.05176e-05L0.000122031 2.95778e-05L0.000121117 10.75Z" fill="black"/>
<path d="M62.733 10.75L73.1885 10.75L73.1885 3.05176e-05L62.733 2.95778e-05L62.733 10.75Z" fill="black"/>
<path d="M52.2775 10.75L62.7329 10.75L62.7329 3.05176e-05L52.2775 2.95778e-05L52.2775 10.75Z" fill="black"/>
<path d="M52.2775 21.4999L62.7329 21.4999L62.7329 10.7499L52.2775 10.7499L52.2775 21.4999Z" fill="black"/>
<path d="M41.8219 10.75L52.2773 10.75L52.2773 3.05176e-05L41.8219 2.95778e-05L41.8219 10.75Z" fill="black"/>
<path d="M104.554 10.75L115.01 10.75L115.01 3.05176e-05L104.554 2.95778e-05L104.554 10.75Z" fill="black"/>
<path d="M94.0988 10.75L104.554 10.75L104.554 3.05176e-05L94.0988 2.95778e-05L94.0988 10.75Z" fill="black"/>
<path d="M94.099 21.4999L104.554 21.4999L104.554 10.7499L94.099 10.7499L94.099 21.4999Z" fill="black"/>
<path d="M83.6437 10.75L94.0991 10.75L94.0991 3.05176e-05L83.6437 2.95778e-05L83.6437 10.75Z" fill="black"/>
<path d="M146.377 10.75L156.832 10.75L156.832 3.05176e-05L146.377 2.95778e-05L146.377 10.75Z" fill="black"/>
<path d="M135.921 10.75L146.376 10.75L146.376 3.05176e-05L135.921 2.95778e-05L135.921 10.75Z" fill="black"/>
<path d="M135.921 21.4999L146.376 21.4999L146.376 10.7499L135.921 10.7499L135.921 21.4999Z" fill="black"/>
<path d="M125.465 10.75L135.921 10.75L135.921 3.05176e-05L125.465 2.95778e-05L125.465 10.75Z" fill="black"/>
<path d="M188.634 10.75L199.089 10.75L199.089 3.05176e-05L188.634 2.95778e-05L188.634 10.75Z" fill="black"/>
<path d="M178.178 10.75L188.634 10.75L188.634 3.05176e-05L178.178 2.95778e-05L178.178 10.75Z" fill="black"/>
<path d="M178.178 21.4999L188.634 21.4999L188.634 10.7499L178.178 10.7499L178.178 21.4999Z" fill="black"/>
<path d="M167.723 10.75L178.178 10.75L178.178 3.05176e-05L167.723 2.95778e-05L167.723 10.75Z" fill="black"/>
<path d="M209.545 10.75L220 10.75L220 3.05176e-05L209.545 2.95778e-05L209.545 10.75Z" fill="black"/>
<path d="M0.000121117 32.2499L10.4556 32.2499L10.4556 21.4999L0.000122031 21.4999L0.000121117 32.2499Z" fill="black"/>
<path d="M0.000121117 21.4999L10.4556 21.4999L10.4556 10.7499L0.000122031 10.7499L0.000121117 21.4999Z" fill="white"/>
<path d="M209.545 42.9999L220 42.9999L220 32.2499L209.545 32.2499L209.545 42.9999Z" fill="white"/>
<path d="M41.8214 32.25L52.2769 32.25L52.2769 21.5L41.8214 21.5L41.8214 32.25Z" fill="black"/>
<path d="M31.3658 32.25L41.8213 32.25L41.8213 21.5L31.3658 21.5L31.3658 32.25Z" fill="black"/>
<path d="M31.3658 43L41.8213 43L41.8213 32.25L31.3658 32.25L31.3658 43Z" fill="black"/>
<path d="M20.9103 32.25L31.3657 32.25L31.3657 21.5L20.9103 21.5L20.9103 32.25Z" fill="black"/>
<path d="M83.6432 32.25L94.0986 32.25L94.0986 21.5L83.6432 21.5L83.6432 32.25Z" fill="black"/>
<path d="M73.1876 32.25L83.6431 32.25L83.6431 21.5L73.1876 21.5L73.1876 32.25Z" fill="black"/>
<path d="M73.1876 43L83.6431 43L83.6431 32.25L73.1876 32.25L73.1876 43Z" fill="black"/>
<path d="M62.7321 32.25L73.1875 32.25L73.1875 21.5L62.7321 21.5L62.7321 32.25Z" fill="black"/>
<path d="M125.465 32.25L135.921 32.25L135.921 21.5L125.465 21.5L125.465 32.25Z" fill="black"/>
<path d="M115.01 32.25L125.465 32.25L125.465 21.5L115.01 21.5L115.01 32.25Z" fill="black"/>
<path d="M115.01 43.0001L125.465 43.0001L125.465 32.2502L115.01 32.2502L115.01 43.0001Z" fill="black"/>
<path d="M104.554 32.25L115.01 32.25L115.01 21.5L104.554 21.5L104.554 32.25Z" fill="black"/>
<path d="M167.287 32.25L177.743 32.25L177.743 21.5L167.287 21.5L167.287 32.25Z" fill="black"/>
<path d="M156.832 32.25L167.287 32.25L167.287 21.5L156.832 21.5L156.832 32.25Z" fill="black"/>
<path d="M156.832 43L167.287 43L167.287 32.25L156.832 32.25L156.832 43Z" fill="black"/>
<path d="M146.376 32.25L156.832 32.25L156.832 21.5L146.376 21.5L146.376 32.25Z" fill="black"/>
<path d="M209.545 32.25L220 32.25L220 21.5L209.545 21.5L209.545 32.25Z" fill="black"/>
<path d="M199.089 32.25L209.544 32.25L209.544 21.5L199.089 21.5L199.089 32.25Z" fill="black"/>
<path d="M199.089 43.0001L209.544 43.0001L209.544 32.2502L199.089 32.2502L199.089 43.0001Z" fill="black"/>
<path d="M188.633 32.25L199.089 32.25L199.089 21.5L188.633 21.5L188.633 32.25Z" fill="black"/>
<path d="M10.4554 32.2499H0V42.9998H10.4554V32.2499Z" fill="white"/>
<path d="M20.911 32.2499H10.4556V42.9998H20.911V32.2499Z" fill="white"/>
<path d="M20.911 21.4999H10.4556V32.2498H20.911V21.4999Z" fill="white"/>
<path d="M31.3666 32.2499H20.9111V42.9998H31.3666V32.2499Z" fill="white"/>
<path d="M52.2772 32.2499H41.8218V42.9998H52.2772V32.2499Z" fill="white"/>
<path d="M62.7328 32.2499H52.2773V42.9998H62.7328V32.2499Z" fill="white"/>
<path d="M62.7325 21.4999H52.2771V32.2498H62.7325V21.4999Z" fill="white"/>
<path d="M73.1884 32.2499H62.7329V42.9998H73.1884V32.2499Z" fill="white"/>
<path d="M94.099 32.2499H83.6436V42.9998H94.099V32.2499Z" fill="white"/>
<path d="M104.555 32.2499H94.0991V42.9998H104.555V32.2499Z" fill="white"/>
<path d="M104.555 21.4999H94.0991V32.2498H104.555V21.4999Z" fill="white"/>
<path d="M115.01 32.2499H104.555V42.9998H115.01V32.2499Z" fill="white"/>
<path d="M135.921 32.2499H125.465V42.9998H135.921V32.2499Z" fill="white"/>
<path d="M146.376 32.2499H135.921V42.9998H146.376V32.2499Z" fill="white"/>
<path d="M146.376 21.4999H135.921V32.2498H146.376V21.4999Z" fill="white"/>
<path d="M156.832 32.2499H146.376V42.9998H156.832V32.2499Z" fill="white"/>
<path d="M178.179 32.2499H167.723V42.9998H178.179V32.2499Z" fill="white"/>
<path d="M188.634 32.2499H178.179V42.9998H188.634V32.2499Z" fill="white"/>
<path d="M188.634 21.4999H178.179V32.2498H188.634V21.4999Z" fill="white"/>
<path d="M199.09 32.2499H188.634V42.9998H199.09V32.2499Z" fill="white"/>
<path d="M31.3666 10.7501L20.9111 10.7501L20.9111 21.5001L31.3666 21.5001L31.3666 10.7501Z" fill="white"/>
<path d="M41.8221 10.7501L31.3667 10.7501L31.3667 21.5001L41.8221 21.5001L41.8221 10.7501Z" fill="white"/>
<path d="M41.8221 0.000123898L31.3667 0.00012207L31.3667 10.7501L41.8221 10.7501L41.8221 0.000123898Z" fill="white"/>
<path d="M52.2777 10.7501L41.8223 10.7501L41.8223 21.5001L52.2777 21.5001L52.2777 10.7501Z" fill="white"/>
<path d="M73.1881 10.7501L62.7327 10.7501L62.7327 21.5001L73.1881 21.5001L73.1881 10.7501Z" fill="white"/>
<path d="M83.6437 10.7501L73.1882 10.7501L73.1882 21.5001L83.6437 21.5001L83.6437 10.7501Z" fill="white"/>
<path d="M83.6437 0.000123898L73.1882 0.00012207L73.1882 10.7501L83.6437 10.7501L83.6437 0.000123898Z" fill="white"/>
<path d="M94.0992 10.7501L83.6438 10.7501L83.6438 21.5001L94.0992 21.5001L94.0992 10.7501Z" fill="white"/>
<path d="M115.01 10.7501L104.555 10.7501L104.555 21.5001L115.01 21.5001L115.01 10.7501Z" fill="white"/>
<path d="M125.466 10.7501L115.01 10.7501L115.01 21.5001L125.466 21.5001L125.466 10.7501Z" fill="white"/>
<path d="M125.466 0.000123898L115.01 0.00012207L115.01 10.7501L125.466 10.7501L125.466 0.000123898Z" fill="white"/>
<path d="M135.921 10.7501L125.466 10.7501L125.466 21.5001L135.921 21.5001L135.921 10.7501Z" fill="white"/>
<path d="M156.831 10.7501L146.376 10.7501L146.376 21.5001L156.831 21.5001L156.831 10.7501Z" fill="white"/>
<path d="M167.287 10.7501L156.832 10.7501L156.832 21.5001L167.287 21.5001L167.287 10.7501Z" fill="white"/>
<path d="M167.287 0.000123898L156.832 0.00012207L156.832 10.7501L167.287 10.7501L167.287 0.000123898Z" fill="white"/>
<path d="M177.743 10.7501L167.287 10.7501L167.287 21.5001L177.743 21.5001L177.743 10.7501Z" fill="white"/>
<path d="M199.089 10.75L188.634 10.75L188.634 21.5L199.089 21.5L199.089 10.75Z" fill="white"/>
<path d="M209.545 10.75L199.089 10.75L199.089 21.5L209.545 21.5L209.545 10.75Z" fill="white"/>
<path d="M209.545 1.82809e-06L199.089 0L199.089 10.75L209.545 10.75L209.545 1.82809e-06Z" fill="white"/>
<path d="M220 10.75L209.544 10.75L209.544 21.5L220 21.5L220 10.75Z" fill="white"/>
</svg>
