<svg width="220" height="44" viewBox="0 0 220 44" fill="none" xmlns="http://www.w3.org/2000/svg">
<path d="M16.9897 14.6132H0V29.3819H16.9897V14.6132Z" fill="black"/>
<path d="M33.8085 29.382H16.9922V44H33.8085H50.7981H67.6145V29.382H50.7981H33.8085Z" fill="black"/>
<path d="M84.601 14.6132H67.6113V29.3819H84.601V14.6132Z" fill="black"/>
<path d="M101.589 29.382H84.5996V44H101.589H118.406H135.395V29.382H118.406H101.589Z" fill="black"/>
<path d="M152.386 14.6132H135.396V29.3819H152.386V14.6132Z" fill="black"/>
<path d="M169.206 29.382H152.217V44H169.206H186.196H203.012V29.382H186.196H169.206Z" fill="black"/>
<path d="M219.999 14.6132H203.01V29.3819H219.999V14.6132Z" fill="black"/>
<path d="M34.06 0H17.2437V14.6181H34.06H51.0496H67.8659V0H51.0496H34.06Z" fill="black"/>
<path d="M101.844 0H84.8545V14.6181H101.844H118.66H135.65V0H118.66H101.844Z" fill="black"/>
<path d="M169.457 0H152.467V14.6181H169.457H186.447H203.263V0H186.447H169.457Z" fill="black"/>
</svg>
