<svg width="27" height="22" viewBox="0 0 27 22" fill="none" xmlns="http://www.w3.org/2000/svg">
<path d="M23.3239 5.46915C23.3239 5.68693 23.3239 5.90471 23.3239 6.12249C23.3239 13.0914 17.933 21.1493 8.14135 21.1493C5.17086 21.1493 2.31038 20.2782 0 18.7537C0.440073 18.7537 0.880143 18.8626 1.32022 18.8626C3.85064 18.8626 6.16102 17.9915 7.92131 16.5759C5.61093 16.5759 3.6306 15.0515 2.97049 12.8737C3.30054 12.9826 3.6306 12.9826 3.96066 12.9826C4.40073 12.9826 4.95082 12.8737 5.39089 12.7648C2.97049 12.3292 1.10018 10.1514 1.10018 7.53806C1.10018 7.53806 1.10018 7.53806 1.10018 7.42917C1.87031 7.86473 2.64043 8.08251 3.52058 8.08251C2.09034 7.1025 1.10018 5.46915 1.10018 3.72691C1.10018 2.7469 1.32022 1.87578 1.87031 1.11355C4.51075 4.27136 8.4714 6.44916 12.8721 6.66694C12.7621 6.23138 12.7621 5.90471 12.7621 5.46915C12.7621 2.52912 15.1825 0.242432 18.043 0.242432C19.5833 0.242432 21.0135 0.895771 21.8936 1.87578C23.1038 1.658 24.204 1.22244 25.3042 0.569102C24.8641 1.76689 24.094 2.85579 22.9938 3.50913C24.094 3.40024 25.0842 3.07357 26.0743 2.63801C25.3042 3.8358 24.314 4.81581 23.3239 5.46915Z" fill="white"/>
</svg>
