<svg width="37" height="27" viewBox="0 0 37 27" fill="none" xmlns="http://www.w3.org/2000/svg">
<path d="M33.1857 6.73383C33.1857 7.0144 33.1857 7.29498 33.1857 7.57555C33.1857 16.554 25.71 26.9353 12.1317 26.9353C8.01238 26.9353 4.04568 25.813 0.841797 23.849C1.45206 23.849 2.06232 23.9893 2.67258 23.9893C6.18159 23.9893 9.38548 22.8669 11.8265 21.0432C8.62265 21.0432 5.87646 19.0792 4.96107 16.2734C5.41877 16.4137 5.87646 16.4137 6.33416 16.4137C6.94443 16.4137 7.70725 16.2734 8.31752 16.1331C4.96107 15.572 2.36745 12.7662 2.36745 9.3993C2.36745 9.3993 2.36745 9.3993 2.36745 9.25901C3.43541 9.82016 4.50337 10.1007 5.7239 10.1007C3.74054 8.83815 2.36745 6.73383 2.36745 4.48922C2.36745 3.22662 2.67258 2.10432 3.43541 1.1223C7.09699 5.19066 12.5894 7.99642 18.692 8.27699C18.5394 7.71584 18.5394 7.29498 18.5394 6.73383C18.5394 2.94605 21.8959 0 25.8626 0C27.9985 0 29.9819 0.841728 31.2024 2.10432C32.8806 1.82374 34.4063 1.26259 35.9319 0.420864C35.3217 1.96403 34.2537 3.36691 32.728 4.20864C34.2537 4.06835 35.6268 3.64749 36.9999 3.08634C35.9319 4.6295 34.5588 5.8921 33.1857 6.73383Z" fill="black"/>
</svg>
