<svg width="62" height="156" viewBox="0 0 62 156" fill="none" xmlns="http://www.w3.org/2000/svg">
<path d="M61.0795 0H0V61.08H61.0795V0Z" fill="#3D3D4B"/>
<path d="M50 11H11V50H50V11Z" fill="#F1F0F0"/>
<rect y="78" width="17.3051" height="61.08" transform="rotate(-90 0 78)" fill="#E427FF"/>
<rect y="95.31" width="17.31" height="61.08" transform="rotate(-90 0 95.31)" fill="white"/>
<path d="M22.0981 66.86L19.7581 73L21.3481 73L21.7781 71.81H24.0081L24.4481 73H26.0781L23.7381 66.86H22.0981ZM22.8981 68.76L23.5281 70.49H22.2681L22.8981 68.76ZM26.5129 73L30.8729 73V71.61L28.1229 71.61L28.1229 66.86H26.5129L26.5129 73ZM31.5106 73H35.8706L35.8706 71.61H33.1206L33.1206 66.86H31.5106L31.5106 73ZM38.2789 69.26L36.9889 66.86H35.2489L37.4289 70.82L37.4289 73L39.0389 73L39.0389 70.82L41.2589 66.86H39.5689L38.2789 69.26Z" fill="black"/>
<rect y="95" width="61.08" height="60.5678" fill="black"/>
<path d="M45.3598 109L39.5472 133.306L34.811 113.06H26.2537L21.4637 133.306L15.7049 109H10L16.9428 140.038L17.2657 141.014H25.7154L30.5054 120.511L35.0263 140.038L35.3492 141.014H43.799L51.0109 109H45.3598Z" fill="white"/>
</svg>
