<svg width="62" height="156" viewBox="0 0 62 156" fill="none" xmlns="http://www.w3.org/2000/svg">
<path d="M61.0795 0H0V61.08H61.0795V0Z" fill="#DFDFDF"/>
<path d="M30.2031 4.99998L4 31.2031L30.2031 57.4063L56.4063 31.2031L30.2031 4.99998Z" fill="#E427FF"/>
<rect y="78.3051" width="17.3051" height="61.08" transform="rotate(-90 0 78.3051)" fill="#2AE648"/>
<rect y="95.31" width="17.31" height="61.08" transform="rotate(-90 0 95.31)" fill="white"/>
<path d="M16.6706 90L17.9406 86.35L17.9406 90H19.4506L19.4506 83.86H17.5006L16.1606 87.68L14.8106 83.86H12.8506L12.8506 90H14.3506L14.3506 86.35L15.6306 90H16.6706ZM20.2702 83.86L20.2702 90L24.6602 90L24.6602 88.61L21.8502 88.61V87.55L24.4202 87.55L24.4202 86.2L21.8502 86.2V85.24L24.6602 85.24L24.6602 83.86L20.2702 83.86ZM29.1757 90L30.4457 86.35L30.4457 90L31.9557 90L31.9557 83.86L30.0057 83.86L28.6657 87.68L27.3157 83.86H25.3557L25.3557 90H26.8557L26.8557 86.35L28.1357 90H29.1757ZM36.6352 86.83C37.0852 86.67 37.4552 86.19 37.4552 85.53C37.4552 84.43 36.6852 83.86 35.4052 83.86H32.7752L32.7752 90H35.5952C36.8752 90 37.6352 89.39 37.6352 88.28C37.6352 87.59 37.2152 87.02 36.6352 86.83ZM34.3052 86.29L34.3052 85.18H35.2252C35.6952 85.18 35.9452 85.35 35.9452 85.73C35.9452 86.11 35.6952 86.29 35.2252 86.29H34.3052ZM34.3052 87.49H35.3852C35.8352 87.49 36.0852 87.72 36.0852 88.09C36.0852 88.44 35.8352 88.68 35.3852 88.68H34.3052V87.49ZM38.2416 83.86L38.2416 90H42.6316V88.61H39.8216V87.55H42.3916V86.2H39.8216L39.8216 85.24H42.6316V83.86H38.2416ZM45.4772 87.97L46.7572 90H48.5372L47.0972 87.8C47.8472 87.52 48.3172 86.88 48.3172 85.95C48.3172 84.61 47.4072 83.86 46.0872 83.86L43.3272 83.86L43.3272 90L44.9172 90V87.97H45.4772ZM44.9172 85.21H45.9172C46.4872 85.21 46.7472 85.5 46.7472 85.95C46.7472 86.4 46.4872 86.69 45.9172 86.69H44.9172L44.9172 85.21Z" fill="black"/>
<path d="M3.88367 69.93C3.88367 71.79 5.11367 73.1 6.83367 73.1C8.36367 73.1 9.26367 72.19 9.48367 70.93H7.88367C7.72367 71.39 7.39367 71.69 6.83367 71.69C5.98367 71.69 5.50367 70.93 5.50367 69.93C5.50367 68.92 5.98367 68.17 6.83367 68.17C7.39367 68.17 7.72367 68.47 7.88367 68.92H9.48367C9.26367 67.67 8.36367 66.76 6.83367 66.76C5.11367 66.76 3.88367 68.07 3.88367 69.93ZM15.8091 69.93C15.8091 68.09 14.5791 66.76 12.7991 66.76C11.0291 66.76 9.80906 68.09 9.80906 69.93C9.80906 71.76 11.0291 73.1 12.7991 73.1C14.5791 73.1 15.8091 71.76 15.8091 69.93ZM14.1891 69.93C14.1891 70.99 13.6291 71.69 12.7991 71.69C11.9691 71.69 11.4291 70.99 11.4291 69.93C11.4291 68.87 11.9691 68.17 12.7991 68.17C13.6291 68.17 14.1891 68.87 14.1891 69.93ZM20.1948 73L21.4648 69.35L21.4648 73H22.9748L22.9748 66.86H21.0248L19.6848 70.68L18.3348 66.86H16.3748L16.3748 73H17.8748L17.8748 69.35L19.1548 73H20.1948ZM27.6144 73L28.8844 69.35L28.8844 73H30.3944L30.3944 66.86L28.4444 66.86L27.1044 70.68L25.7544 66.86H23.7944L23.7944 73H25.2944L25.2944 69.35L26.5744 73H27.6144ZM33.8239 73.1C35.4439 73.1 36.4939 72.18 36.4939 70.5L36.4939 66.86H34.8939L34.8939 70.35C34.8939 71.22 34.4839 71.67 33.8239 71.67C33.1539 71.67 32.7439 71.22 32.7439 70.35L32.7439 66.86H31.1439L31.1439 70.49C31.1439 72.18 32.2039 73.1 33.8239 73.1ZM42.6667 66.86H41.1167L41.1167 70.24L38.7467 66.86L37.2467 66.86L37.2467 73L38.7967 73L38.7967 69.41L41.3667 73H42.6667L42.6667 66.86ZM45.0946 66.86H43.4846L43.4846 73H45.0946L45.0946 66.86ZM45.6539 68.24H47.5439L47.5439 73H49.1539L49.1539 68.24H51.0539L51.0539 66.86H45.6539L45.6539 68.24ZM54.3033 69.26L53.0133 66.86H51.2733L53.4533 70.82L53.4533 73L55.0633 73L55.0633 70.82L57.2833 66.86H55.5933L54.3033 69.26Z" fill="black"/>
<rect y="95" width="61.08" height="60.5678" fill="black"/>
<path d="M45.4437 109L39.6312 133.306L34.895 113.06H26.3376L21.5477 133.306L15.7889 109H10.084L17.0268 140.038L17.3497 141.014H25.7994L30.5894 120.511L35.1103 140.038L35.4332 141.014H43.883L51.0948 109H45.4437Z" fill="white"/>
</svg>
