<svg width="62" height="156" viewBox="0 0 62 156" fill="none" xmlns="http://www.w3.org/2000/svg">
<path d="M61.0795 0H0V61.08H61.0795V0Z" fill="#00BD5E"/>
<circle cx="30" cy="30" r="23" fill="#023B34"/>
<rect y="78.3051" width="17.3051" height="61.08" transform="rotate(-90 0 78.3051)" fill="#2AE648"/>
<rect y="95.31" width="17.31" height="61.08" transform="rotate(-90 0 95.31)" fill="white"/>
<path d="M13.8328 71.09C15.1628 71.09 16.0628 70.34 16.0628 68.98C16.0628 67.61 15.1628 66.86 13.8328 66.86L11.1428 66.86L11.1428 73L12.7328 73L12.7328 71.09H13.8328ZM14.5028 68.98C14.5028 69.44 14.2428 69.75 13.6628 69.75H12.7328L12.7328 68.21H13.6628C14.2428 68.21 14.5028 68.51 14.5028 68.98ZM18.0221 66.86L15.6821 73H17.2721L17.7021 71.81H19.9321L20.3721 73L22.0021 73L19.6621 66.86H18.0221ZM18.8221 68.76L19.4521 70.49H18.1921L18.8221 68.76ZM24.587 70.97L25.867 73H27.647L26.207 70.8C26.957 70.52 27.427 69.88 27.427 68.95C27.427 67.61 26.517 66.86 25.197 66.86H22.437L22.437 73H24.027L24.027 70.97H24.587ZM24.027 68.21H25.027C25.597 68.21 25.857 68.5 25.857 68.95C25.857 69.4 25.597 69.69 25.027 69.69H24.027L24.027 68.21ZM27.7508 68.24L29.6408 68.24L29.6408 73H31.2508L31.2508 68.24H33.1508L33.1508 66.86L27.7508 66.86L27.7508 68.24ZM39.1316 66.86H37.5816L37.5816 70.24L35.2116 66.86H33.7116L33.7116 73H35.2616L35.2616 69.41L37.8316 73H39.1316L39.1316 66.86ZM39.9495 66.86L39.9495 73H44.3395L44.3395 71.61H41.5295V70.55H44.0995V69.2H41.5295V68.24H44.3395L44.3395 66.86H39.9495ZM47.185 70.97L48.465 73H50.245L48.805 70.8C49.555 70.52 50.025 69.88 50.025 68.95C50.025 67.61 49.115 66.86 47.795 66.86L45.035 66.86L45.035 73L46.625 73L46.625 70.97H47.185ZM46.625 68.21H47.625C48.195 68.21 48.455 68.5 48.455 68.95C48.455 69.4 48.195 69.69 47.625 69.69H46.625V68.21Z" fill="black"/>
<rect y="95" width="61.08" height="60.5678" fill="black"/>
<path d="M45.4457 109L39.6331 133.306L34.897 113.06H26.3396L21.5496 133.306L15.7909 109H10.0859L17.0287 140.038L17.3516 141.014H25.8014L30.5914 120.511L35.1123 140.038L35.4352 141.014H43.8849L51.0968 109H45.4457Z" fill="white"/>
</svg>
