<svg width="62" height="157" viewBox="0 0 62 157" fill="none" xmlns="http://www.w3.org/2000/svg">
<path d="M61.0795 0H0V61.08H61.0795V0Z" fill="#005A4F"/>
<rect y="78" width="17.3051" height="61.08" transform="rotate(-90 0 78)" fill="#E427FF"/>
<rect y="95.31" width="17.31" height="61.08" transform="rotate(-90 0 95.31)" fill="white"/>
<path d="M16.6706 90L17.9406 86.35L17.9406 90H19.4506L19.4506 83.86H17.5006L16.1606 87.68L14.8106 83.86H12.8506L12.8506 90H14.3506L14.3506 86.35L15.6306 90H16.6706ZM20.2702 83.86L20.2702 90L24.6602 90L24.6602 88.61L21.8502 88.61V87.55L24.4202 87.55L24.4202 86.2L21.8502 86.2V85.24L24.6602 85.24L24.6602 83.86L20.2702 83.86ZM29.1757 90L30.4457 86.35L30.4457 90L31.9557 90L31.9557 83.86L30.0057 83.86L28.6657 87.68L27.3157 83.86H25.3557L25.3557 90H26.8557L26.8557 86.35L28.1357 90H29.1757ZM36.6352 86.83C37.0852 86.67 37.4552 86.19 37.4552 85.53C37.4552 84.43 36.6852 83.86 35.4052 83.86H32.7752L32.7752 90H35.5952C36.8752 90 37.6352 89.39 37.6352 88.28C37.6352 87.59 37.2152 87.02 36.6352 86.83ZM34.3052 86.29L34.3052 85.18H35.2252C35.6952 85.18 35.9452 85.35 35.9452 85.73C35.9452 86.11 35.6952 86.29 35.2252 86.29H34.3052ZM34.3052 87.49H35.3852C35.8352 87.49 36.0852 87.72 36.0852 88.09C36.0852 88.44 35.8352 88.68 35.3852 88.68H34.3052V87.49ZM38.2416 83.86L38.2416 90H42.6316V88.61H39.8216V87.55H42.3916V86.2H39.8216L39.8216 85.24H42.6316V83.86H38.2416ZM45.4772 87.97L46.7572 90H48.5372L47.0972 87.8C47.8472 87.52 48.3172 86.88 48.3172 85.95C48.3172 84.61 47.4072 83.86 46.0872 83.86L43.3272 83.86L43.3272 90L44.9172 90V87.97H45.4772ZM44.9172 85.21H45.9172C46.4872 85.21 46.7472 85.5 46.7472 85.95C46.7472 86.4 46.4872 86.69 45.9172 86.69H44.9172L44.9172 85.21Z" fill="black"/>
<path d="M14.4668 66.86L14.4668 73H18.8568V71.61H16.0468L16.0468 70.55H18.6168V69.2H16.0468L16.0468 68.24H18.8568L18.8568 66.86H14.4668ZM25.0024 66.86H23.2624L22.1224 68.61L21.0124 66.86L19.2224 66.86L21.1924 69.86L19.1224 73H20.8724L22.0924 71.11L23.3124 73H25.1024L23.0324 69.86L25.0024 66.86ZM28.1775 71.09C29.5075 71.09 30.4075 70.34 30.4075 68.98C30.4075 67.61 29.5075 66.86 28.1775 66.86H25.4875L25.4875 73H27.0775L27.0775 71.09H28.1775ZM28.8475 68.98C28.8475 69.44 28.5875 69.75 28.0075 69.75H27.0775L27.0775 68.21H28.0075C28.5875 68.21 28.8475 68.51 28.8475 68.98ZM30.993 66.86L30.993 73H35.383L35.383 71.61H32.573V70.55H35.143V69.2H32.573V68.24H35.383L35.383 66.86H30.993ZM38.2286 70.97L39.5086 73H41.2886L39.8486 70.8C40.5986 70.52 41.0686 69.88 41.0686 68.95C41.0686 67.61 40.1586 66.86 38.8386 66.86L36.0786 66.86L36.0786 73L37.6686 73L37.6686 70.97H38.2286ZM37.6686 68.21H38.6686C39.2386 68.21 39.4986 68.5 39.4986 68.95C39.4986 69.4 39.2386 69.69 38.6686 69.69H37.6686V68.21ZM41.3924 68.24H43.2824L43.2824 73H44.8924L44.8924 68.24L46.7924 68.24L46.7924 66.86L41.3924 66.86L41.3924 68.24Z" fill="black"/>
<rect y="95" width="61.08" height="61.08" fill="black"/>
<path d="M45.4437 109.118L39.6312 133.63L34.895 113.212H26.3376L21.5477 133.63L15.7889 109.118H10.084L17.0268 140.419L17.3497 141.404H25.7994L30.5894 120.727L35.1103 140.419L35.4332 141.404H43.883L51.0948 109.118H45.4437Z" fill="white"/>
<path d="M30.5 9L55.1817 51.75H5.81828L30.5 9Z" fill="#2AE648"/>
</svg>
