<svg width="38" height="35" viewBox="0 0 38 35" fill="none" xmlns="http://www.w3.org/2000/svg">
<path d="M4.90808 11.2172C5.47687 11.5901 6.04566 11.4969 6.51965 11.0308C7.08843 10.5647 7.27803 10.0986 6.89884 9.63244C6.61444 9.35277 6.33005 9.35277 5.76126 9.63244L4.2445 10.3782C3.10692 10.9376 1.87455 11.0308 0.926573 9.91211C-0.211002 8.60699 0.168191 6.83576 1.68496 5.62386C3.29652 4.31874 5.00288 4.41196 6.14045 5.34419L4.43409 6.74253C3.9601 6.46286 3.48611 6.46286 2.82253 6.92898C2.34854 7.30187 2.15894 7.86121 2.44334 8.2341C2.72773 8.51377 3.01213 8.51377 3.48611 8.32732L5.09768 7.58154C6.51965 6.92898 7.65722 7.0222 8.5104 8.04765C9.64797 9.446 9.17399 11.124 7.65722 12.3359C6.04566 13.641 4.3393 13.8275 3.01213 12.7088L4.90808 11.2172Z" fill="black"/>
<path d="M10.0274 6.46281L9.36377 1.42877L11.5441 1.1491L12.2077 5.99669C12.3973 7.20859 13.0609 7.76793 14.0089 7.58148C14.9568 7.48826 15.4308 6.74248 15.2412 5.53058L14.5777 0.682989L16.8528 0.40332L17.5164 5.43736C17.8008 7.76793 16.5684 9.2595 14.1985 9.53916C12.0181 9.91206 10.3117 8.79338 10.0274 6.46281Z" fill="black"/>
<path d="M25.9528 9.912C25.2892 11.3103 23.962 11.59 22.2556 10.8442L18.6533 9.16621L22.4452 1.42871L25.7632 3.0135C27.3747 3.75928 28.0383 4.97118 27.3747 6.36953C26.9955 7.20853 26.2371 7.58142 25.5736 7.4882C26.1423 8.04754 26.3319 9.07299 25.9528 9.912ZM21.4025 8.42043L22.8244 9.07299C23.3932 9.35266 23.8672 9.16621 24.0568 8.79332C24.2464 8.32721 24.0568 7.86109 23.488 7.58142L22.066 6.92886L21.4025 8.42043ZM24.0568 5.99663C24.6256 6.2763 25.0996 6.18308 25.2892 5.71697C25.4788 5.25085 25.2892 4.87796 24.7204 4.59829L23.5828 4.03895L22.9192 5.4373L24.0568 5.99663Z" fill="black"/>
<path d="M27.2802 15.5052L30.9774 11.4966L26.4271 13.9204L25.3843 12.0559L33.0629 7.9541L34.3901 10.3779L30.5034 14.6662L36.1912 13.7339L37.5184 16.1577L29.8398 20.2595L28.797 18.3951L33.3473 15.9713L27.9438 16.8103L27.2802 15.5052Z" fill="black"/>
<path d="M29.176 23.4295V21.1921H37.8975V23.4295H29.176Z" fill="black"/>
<path d="M37.7079 27.2516L34.6744 34.1501L32.8733 33.4043L33.916 30.9805L27.6594 28.3702L28.6074 26.3193L34.864 28.9296L35.9068 26.5058L37.7079 27.2516Z" fill="black"/>
</svg>
