<svg width="630" height="404" viewBox="0 0 630 404" fill="none" xmlns="http://www.w3.org/2000/svg">
<path d="M532.539 -0.000175808L91 0.140137L91.4636 134.999L533.002 134.859L532.539 -0.000175808Z" fill="white"/>
<path d="M533.539 133.999L92 134.14L92.4636 268.999L534.002 268.858L533.539 133.999Z" fill="#2AE648"/>
<path d="M533.539 268.999L92 269.14L92.4636 403.999L534.002 403.858L533.539 268.999Z" fill="white"/>
<path d="M149.724 68.4795C149.724 81.5995 158.364 90.7995 171.804 90.7995C183.804 90.7995 190.924 83.5195 194.124 73.4395H181.244C179.484 77.2795 176.444 79.5195 172.204 79.5195C166.364 79.5195 162.684 74.9595 162.684 68.1595C162.684 58.3995 167.644 51.3595 175.244 51.3595C179.564 51.3595 182.204 53.7595 182.844 57.3595H195.644C195.004 47.3595 187.884 40.0795 175.724 40.0795C160.524 40.0795 149.724 52.8795 149.724 68.4795ZM220.798 79.5195C214.958 79.5195 211.278 74.7995 211.278 68.1595C211.278 57.7595 216.798 51.3595 223.998 51.3595C229.838 51.3595 233.518 56.0795 233.518 62.7195C233.518 73.1195 227.918 79.5195 220.798 79.5195ZM220.398 90.7995C235.038 90.7995 246.478 78.7995 246.478 62.3995C246.478 49.3595 237.998 40.0795 224.398 40.0795C209.758 40.0795 198.318 52.0795 198.318 68.4795C198.318 81.5195 206.798 90.7995 220.398 90.7995ZM299.324 40.8795H286.924L281.964 68.7995L267.644 40.8795H256.124L247.484 89.9995H259.884L265.084 60.3995L280.764 89.9995H290.684L299.324 40.8795ZM349.793 40.8795H337.393L332.433 68.7995L318.113 40.8795H306.593L297.953 89.9995H310.353L315.553 60.3995L331.233 89.9995H341.153L349.793 40.8795ZM357.061 40.8795L348.421 89.9995H383.621L385.541 78.8795H363.061L364.501 70.3995H385.061L386.901 59.5995H366.421L367.781 51.9195H390.341L392.261 40.8795H357.061ZM392.146 68.4795C392.146 81.5995 400.786 90.7995 414.226 90.7995C426.226 90.7995 433.346 83.5195 436.546 73.4395H423.666C421.906 77.2795 418.866 79.5195 414.626 79.5195C408.786 79.5195 405.106 74.9595 405.106 68.1595C405.106 58.3995 410.066 51.3595 417.666 51.3595C421.986 51.3595 424.626 53.7595 425.266 57.3595H438.066C437.426 47.3595 430.306 40.0795 418.146 40.0795C402.946 40.0795 392.146 52.8795 392.146 68.4795ZM440.95 51.9195H456.07L449.35 89.9995H462.23L468.95 51.9195H484.07L486.07 40.8795H442.87L440.95 51.9195Z" fill="black"/>
<path d="M150.014 175.879L141.374 224.999H176.574L178.494 213.879H156.014L157.454 205.399H178.014L179.854 194.599H159.374L160.734 186.919H183.294L185.214 175.879H150.014ZM213.499 224.999L228.859 195.799L223.659 224.999H235.739L244.379 175.879H228.459L212.299 206.679L206.859 175.879H191.499L182.859 224.999H194.859L200.059 195.799L205.179 224.999H213.499ZM267.255 209.719C278.855 209.719 288.215 202.759 288.215 190.359C288.215 180.999 282.135 175.879 272.135 175.879H251.655L243.015 224.999H255.735L258.375 209.719H267.255ZM262.455 186.679H269.735C273.895 186.679 275.655 188.679 275.655 191.719C275.655 196.199 272.695 198.999 267.815 198.999H260.375L262.455 186.679ZM312.579 214.519C306.739 214.519 303.059 209.799 303.059 203.159C303.059 192.759 308.579 186.359 315.779 186.359C321.619 186.359 325.299 191.079 325.299 197.719C325.299 208.119 319.699 214.519 312.579 214.519ZM312.179 225.799C326.819 225.799 338.259 213.799 338.259 197.399C338.259 184.359 329.779 175.079 316.179 175.079C301.539 175.079 290.099 187.079 290.099 203.479C290.099 216.519 298.579 225.799 312.179 225.799ZM370.663 175.879L357.303 204.759L356.023 175.879H343.303L346.423 224.999H358.103L371.543 196.199L373.463 224.999H385.143L407.863 175.879H394.743L382.183 204.759L380.423 175.879H370.663ZM412.124 175.879L403.484 224.999H438.684L440.604 213.879H418.124L419.564 205.399H440.124L441.964 194.599H421.484L422.844 186.919H445.404L447.324 175.879H412.124ZM465.448 208.759L473.288 224.999H486.888L478.008 207.399C485.288 204.919 490.488 199.079 490.488 190.279C490.488 181.159 484.488 175.879 474.808 175.879H453.608L444.968 224.999H457.688L460.568 208.759H465.448ZM464.408 186.679H472.168C476.248 186.679 478.008 188.599 478.008 191.479C478.008 195.959 475.208 198.519 470.248 198.519H462.328L464.408 186.679Z" fill="black"/>
<path d="M204.418 309.879H191.538L182.898 358.999H195.778L204.418 309.879ZM254.972 309.879H242.572L237.612 337.799L223.292 309.879H211.772L203.132 358.999H215.532L220.732 329.399L236.412 358.999H246.332L254.972 309.879ZM297.203 324.359C296.723 315.639 290.403 309.079 277.923 309.079C266.883 309.079 258.163 315.879 258.163 326.279C258.163 333.319 262.323 336.519 268.323 338.199L276.323 340.519C279.363 341.399 280.643 342.519 280.643 344.599C280.563 347.719 277.923 349.479 273.843 349.479C270.163 349.479 267.203 347.719 266.563 344.199H253.523C254.403 354.119 261.843 359.799 273.523 359.799C284.563 359.799 294.003 353.639 294.003 342.439C294.003 336.439 290.483 332.439 283.603 330.359L274.723 327.639C272.323 326.919 271.443 325.799 271.443 324.039C271.443 321.079 273.923 319.319 277.683 319.319C281.683 319.319 284.083 321.639 284.563 324.359H297.203ZM321.278 343.719C332.878 343.719 342.238 336.759 342.238 324.359C342.238 314.999 336.158 309.879 326.158 309.879H305.678L297.038 358.999H309.758L312.398 343.719H321.278ZM316.478 320.679H323.758C327.918 320.679 329.678 322.679 329.678 325.719C329.678 330.199 326.718 332.999 321.838 332.999H314.398L316.478 320.679ZM363.246 309.879H350.366L341.726 358.999H354.606L363.246 309.879ZM382.44 342.759L390.28 358.999H403.88L395 341.399C402.28 338.919 407.48 333.079 407.48 324.279C407.48 315.159 401.48 309.879 391.8 309.879H370.6L361.96 358.999H374.68L377.56 342.759H382.44ZM381.4 320.679H389.16C393.24 320.679 395 322.599 395 325.479C395 329.959 392.2 332.519 387.24 332.519H379.32L381.4 320.679ZM416.538 309.879L407.898 358.999H443.098L445.018 347.879H422.538L423.978 339.399H444.538L446.378 328.599H425.898L427.258 320.919H449.818L451.738 309.879H416.538Z" fill="black"/>
</svg>
