<svg width="280" height="279" viewBox="0 0 280 279" fill="none" xmlns="http://www.w3.org/2000/svg">
<path d="M279.102 0H0.204102V279H279.102V0Z" fill="#E427FF"/>
<path d="M139.637 259.766C206.043 259.766 259.875 205.914 259.875 139.484C259.875 73.0543 206.043 19.2021 139.637 19.2021C73.231 19.2021 19.3984 73.0543 19.3984 139.484C19.3984 205.914 73.231 259.766 139.637 259.766Z" fill="#2AE648"/>
<path d="M104.732 175.29H85.9805L98.5555 103.71H117.307L104.732 175.29Z" fill="black"/>
<path d="M180.72 175.29H166.276L143.439 132.164L135.868 175.29H117.813L130.388 103.71H147.176L168.05 144.395L175.272 103.71H193.327L180.72 175.29Z" fill="black"/>
</svg>
