<svg width="39" height="39" viewBox="0 0 39 39" fill="none" xmlns="http://www.w3.org/2000/svg">
<path d="M38.6137 11.8795C38.6137 10.4089 38.11 8.77484 37.7743 7.30421C37.2706 5.99698 36.4312 5.01656 35.5917 3.87273C34.7523 2.89231 33.4092 2.2387 32.0662 1.74849C30.5552 1.09487 29.0442 0.93147 27.3654 0.93147C25.5186 0.768066 24.5113 0.768066 19.4747 0.768066C14.2703 0.768066 13.4308 0.768066 11.4162 0.93147C9.90525 0.93147 8.22639 1.42168 6.71542 1.74849C5.37234 2.2387 4.36503 3.05572 3.18983 3.87273C2.01463 4.68975 1.51097 5.99698 1.00731 7.30421C0.503657 8.77484 0.167886 10.2455 0.167886 11.8795C0 13.8404 0 14.6574 0 19.7229C0 24.7884 0 25.6054 0.167886 27.5662C0.167886 29.0369 0.671542 30.6709 1.00731 32.1415C1.51097 33.4488 2.3504 34.4292 3.18983 35.573C4.02925 36.5534 5.37234 37.2071 6.71542 37.6973C8.22639 38.1875 9.73736 38.3509 11.4162 38.3509C13.4308 38.5143 14.2703 38.5143 19.4747 38.5143C24.6792 38.5143 25.5186 38.5143 27.5332 38.3509C29.0442 38.3509 30.7231 37.8607 32.234 37.5339C34.7523 36.5534 36.9348 34.5926 37.7743 32.1415C38.4458 30.6709 38.6137 29.2003 38.6137 27.5662C38.6137 25.442 38.7816 24.7884 38.7816 19.7229C38.7816 14.6574 38.7816 13.8404 38.6137 11.8795ZM35.0881 27.2394C35.0881 28.5467 34.9202 29.5271 34.4165 30.8343C33.745 32.4684 32.4019 33.7756 30.7231 34.4292C29.7157 34.9194 28.3727 35.0828 27.0296 35.0828C25.015 35.0828 24.5113 35.2462 19.3068 35.2462C14.1024 35.2462 13.4308 35.2462 11.5841 35.0828C10.241 35.0828 9.23371 34.9194 7.89062 34.4292C7.0512 34.2658 6.37965 33.6122 5.70811 32.9586C5.03657 32.305 4.7008 31.6513 4.19714 30.8343C3.69348 29.8539 3.5256 28.5467 3.5256 27.2394C3.5256 25.2786 3.35771 24.7884 3.35771 19.7229C3.35771 14.6574 3.35771 14.0038 3.5256 12.2063C3.5256 10.8991 3.69348 9.91866 4.19714 8.61144C4.36503 7.79442 5.03657 7.1408 5.70811 6.48719C6.37965 5.83358 7.0512 5.50677 7.89062 5.01656C8.89794 4.52635 10.241 4.36294 11.5841 4.36294C13.5987 4.36294 14.1024 4.19954 19.3068 4.19954C24.5113 4.19954 25.1828 4.19954 27.0296 4.36294C28.3727 4.36294 29.38 4.52635 30.7231 5.01656C31.5625 5.17996 32.234 5.83358 32.9056 6.48719C33.5771 7.1408 33.9129 7.79442 34.4165 8.61144C34.9202 9.59186 35.0881 10.8991 35.0881 12.2063C35.0881 14.1672 35.256 14.6574 35.256 19.7229C35.256 24.7884 35.4239 25.2786 35.0881 27.2394ZM19.4747 10.0821C13.9345 10.0821 9.56948 14.3306 9.56948 19.7229C9.56948 25.1152 14.1024 29.3637 19.4747 29.3637C24.8471 29.3637 29.38 24.9518 29.38 19.7229C29.38 14.1672 25.015 10.0821 19.4747 10.0821ZM19.4747 25.9322C15.7812 25.9322 12.9272 23.1544 12.9272 19.5595C12.9272 15.9646 15.7812 13.1867 19.4747 13.1867C23.1682 13.1867 26.0223 15.9646 26.0223 19.5595C26.0223 23.1544 23.0003 25.9322 19.4747 25.9322ZM32.0662 9.59186C32.0662 10.8991 31.0588 11.8795 29.7158 11.8795C28.3727 11.8795 27.3654 10.8991 27.3654 9.59186C27.3654 8.28463 28.5406 7.30421 29.7158 7.30421C31.0588 7.30421 32.0662 8.28463 32.0662 9.59186Z" fill="black"/>
</svg>
