<svg width="39" height="39" viewBox="0 0 39 39" fill="none" xmlns="http://www.w3.org/2000/svg">
<path d="M8.86681 5.00439C8.86681 7.28548 7.36021 9.07777 4.51445 9.07777C1.83608 9.07777 0.162109 7.28548 0.162109 5.00439C0.162109 2.72329 1.83608 0.768066 4.51445 0.768066C7.19282 0.768066 8.86681 2.72329 8.86681 5.00439ZM0.329492 38.4061V11.1959H8.86681V38.4061H0.329492Z" fill="black"/>
<path d="M13.2201 20.4834C13.2201 17.2247 13.0527 14.6177 13.0527 12.1737H20.7533L21.0881 15.7583H21.2555C22.26 14.1289 24.9384 11.522 29.4583 11.522C34.9827 11.522 39.0004 15.1066 39.0004 22.7645V38.4063H30.4628V24.068C30.4628 20.8093 29.1235 18.2023 26.1103 18.2023C23.7666 18.2023 22.7622 19.9946 22.0926 21.461C21.9251 21.9498 21.7577 22.7645 21.7577 23.4163V38.4063H13.2201V20.4834Z" fill="black"/>
</svg>
