<svg width="279" height="279" viewBox="0 0 279 279" fill="none" xmlns="http://www.w3.org/2000/svg">
<path d="M279.001 0H0.102539V279H279.001V0Z" fill="#2AE648"/>
<path d="M231.457 48.3218H47.584V230.678H231.457V48.3218Z" fill="white"/>
<path d="M231.457 65.2741V64.7037L223.031 69.5518L208.112 60.9647V48.3218H171.084V60.9964L156.197 69.6468L141.278 61.0598L141.246 48.3218H137.636L137.699 61.0598L122.78 69.6468L107.861 61.0598V48.3218H70.833L70.8647 61.0598L56.0091 69.7102L47.6152 64.8621V98.5133L56.0091 93.6335L70.9281 102.221L70.9914 119.458L56.0725 128.108L47.6469 123.229V156.531L56.1358 151.652L71.0231 160.239V168.572V176.906L56.1041 185.556L47.6152 180.676V214.454L56.1358 209.511L71.0547 218.098V230.709H74.6657H104.503H108.114L108.051 218.098L122.97 209.511L137.889 218.098V230.709H141.5V218.098L156.419 209.448L171.306 218.035L171.338 230.709H174.949H204.786H208.397L208.334 218.035L223.253 209.416L231.552 214.201V213.694V211.603V182.704V181.183V180.613L223.221 185.429L208.302 176.842V160.144L223.221 151.557L231.552 156.405V156.341V154.282V125.288V123.197L223.19 128.013L208.271 119.395V102.157L223.19 93.5702L231.552 98.4182V97.8478V95.7882V66.7633V65.2741H231.457ZM122.843 93.6018L137.762 102.189V119.426L122.843 128.045L107.924 119.426V102.189L122.843 93.6018ZM57.7829 90.0213V73.3541L72.7019 64.7671L87.6208 73.3541V90.0213L72.7019 98.6717L57.7829 90.0213ZM57.8463 148.483V131.245L72.7652 122.627L87.6841 131.214V148.451L72.7652 157.07L57.8463 148.483ZM87.7158 205.867L72.8285 214.518L57.9096 205.867L57.8779 189.2L72.7969 180.613L87.7158 189.2V205.867ZM91.2317 73.3225L106.119 64.672L121.038 73.2591L121.07 89.9579L106.151 98.5766L91.2317 89.9896V73.3225ZM91.2634 131.214L106.151 122.627L121.07 131.214L121.133 148.451L106.214 157.07L91.2951 148.451V131.214H91.2634ZM106.214 214.454L91.2951 205.867V189.2L106.182 180.55L121.101 189.137L121.133 205.836L106.214 214.454ZM137.794 176.906L122.875 185.493L107.956 176.906V160.207L122.875 151.62L137.794 160.207V176.906ZM158.034 73.2591L172.921 64.672L187.84 73.2591L187.904 89.9262L172.985 98.5766L158.066 89.9262V73.2591H158.034ZM187.904 131.15V148.388L172.985 157.007L158.066 148.42V131.182L172.985 122.563L187.904 131.15ZM141.373 102.189L156.26 93.5385L171.179 102.157L171.211 119.363L156.292 128.013L141.373 119.426V102.189ZM156.324 185.493L141.405 176.906V160.207L156.292 151.588L171.211 160.175L171.274 176.842L156.324 185.493ZM187.967 205.804L173.048 214.454L158.129 205.804V189.137L173.048 180.55L187.967 189.137V205.804ZM221.353 189.073L221.384 205.772L206.465 214.391L191.546 205.804V189.137L206.434 180.486L221.353 189.073ZM221.289 131.15L221.353 148.388L206.434 157.007L191.515 148.388V131.15L206.402 122.563L221.289 131.15ZM221.258 89.8945L206.37 98.5133L191.451 89.9262L191.388 73.2908L206.307 64.6087L221.226 73.1957V89.8945H221.258Z" fill="black"/>
</svg>
