<svg width="186" height="186" viewBox="0 0 186 186" fill="none" xmlns="http://www.w3.org/2000/svg">
<path d="M110.011 25.2273V44.6364L126.854 54.5001L143.698 44.6364V25.2273L126.854 15.6819L110.011 25.2273Z" fill="white"/>
<path d="M145.605 26.8182V24.2727L144.333 23.6363L144.016 23.3182L129.079 14.7272L127.172 13.7727L125.265 14.7272L110.329 23.3182L109.693 23.6363L108.422 24.2727V45.5909L108.74 45.9091L110.011 46.5454L124.948 55.1363L126.854 56.0909L128.761 55.1363L143.698 46.5454L144.969 45.9091L145.287 45.5909V43.3636L145.605 26.8182ZM141.791 43.6818L126.854 52.2727L111.918 43.6818V26.5L126.219 18.2273L126.854 17.9091L127.49 18.2273L142.109 26.5V27.1363L141.791 43.6818Z" fill="black"/>
<path d="M143.698 25.2273V44.6364L160.542 54.5001L177.067 44.6364V25.2273L160.542 15.6819L143.698 25.2273Z" fill="white"/>
<path d="M177.703 23.6363L177.067 23.3182L162.131 14.7272L160.224 13.7727L158.317 14.7272L143.38 23.3182L142.745 23.6363L141.474 24.2727V26.8182V43.6818V45.9091L141.791 46.2272L143.063 46.8636L157.999 55.4545L159.906 56.4091L161.813 55.4545L176.749 46.8636L178.021 46.2272L178.338 45.9091V24.2727L177.703 23.6363ZM175.478 43.6818L160.542 52.2727L145.605 43.6818V26.8182V26.1818L160.224 17.9091L160.542 17.5909L161.177 17.9091L175.796 26.1818V43.6818H175.478Z" fill="black"/>
<path d="M185.647 20.4546V49.4091L178.973 45.591L177.066 44.6364V25.2273L178.973 24.2728L185.647 20.4546Z" fill="black"/>
<path d="M177.066 23.3181L176.431 23.6363L175.16 24.2727V45.909L175.477 46.2272L176.749 46.8636L185.329 51.6363V47.5L178.656 43.6818V26.5L185.329 22.6818V18.5454L177.066 23.3181Z" fill="black"/>
<path d="M9.58606 25.5453V44.9544L7.67922 45.909L0.6875 50.0453V20.1362L7.67922 24.2726L9.58606 25.5453Z" fill="black"/>
<path d="M11.4938 24.2725L10.2226 23.6361L9.90476 23.318L1.00635 18.2271V22.3634L8.31575 26.4998V43.6816L1.00635 47.8179V51.9543L9.90476 46.8634L11.176 46.227L11.4938 45.9089V24.2725Z" fill="black"/>
<path d="M9.58594 25.5453V44.9544L26.4293 54.4998L42.955 44.6362V25.5453L26.4293 15.6816L9.58594 25.5453Z" fill="white"/>
<path d="M44.8616 24.2725L43.5905 23.318L43.2726 22.9998L28.3361 14.4089L26.4293 13.4543L24.5225 14.4089L9.58601 22.9998L8.95038 23.318L7.6792 23.9543V45.2725L7.99702 45.5907L9.26819 46.2271L24.2047 54.818L26.1115 55.7725L28.0183 54.818L42.9549 46.2271L44.2261 45.2725L44.5439 44.9543L44.8616 24.2725ZM41.3659 43.6816L26.4293 52.2725L11.4927 43.6816V26.4998L26.1115 18.2271L26.7471 17.9089L27.065 18.2271L41.6836 26.4998V43.6816H41.3659Z" fill="black"/>
<path d="M42.9551 25.5453V44.6362L59.7985 54.4998L76.6418 44.6362V25.2271L59.7985 15.6816L42.9551 25.5453Z" fill="white"/>
<path d="M78.5489 26.818V24.2725L77.2777 23.6362L76.6421 23.318L61.7055 14.7271L59.7986 13.4543L57.8918 14.4089L42.9552 22.9998L42.6374 23.318L41.3662 23.9543V45.2725L41.6839 45.5907L42.9552 46.5453L57.8918 55.1362L59.7986 56.0907L61.7055 55.1362L76.6421 46.5453L77.9133 45.5907L78.2311 45.2725V43.0453L78.5489 26.818ZM44.8619 26.4998L59.163 18.2271L59.7986 17.9089L60.1165 18.2271L74.7353 26.4998V27.1362V43.9998L59.7986 52.5907L44.8619 43.9998V26.4998Z" fill="black"/>
<path d="M76.6416 25.2273V44.6364L93.485 54.5001L110.011 44.6364V25.2273L93.485 15.6819L76.6416 25.2273Z" fill="black"/>
<path d="M111.918 24.2727L110.647 23.6363L110.329 23.3182L95.3923 14.7272L93.4855 13.7727L91.5787 14.7272L76.6421 23.3182L76.0065 23.6363L74.7354 24.2727V26.8182V43.6818V45.9091L75.0531 46.2272L76.3243 47.1818L91.2609 55.7727L93.1677 56.7272L95.0745 55.7727L110.011 47.1818L111.282 46.5454L111.6 46.2272L111.918 24.2727ZM78.5489 43.6818V26.8182V26.1818L92.8499 17.9091L93.4855 17.5909L94.121 17.9091L108.74 26.1818V43.3636L93.8033 51.9545L78.5489 43.6818Z" fill="black"/>
<path d="M160.541 1.04541V16.3181L158.635 17.2727L145.605 24.909L143.698 25.8636L141.791 24.909L128.761 17.2727L126.854 16.3181V1.04541H160.541Z" fill="black"/>
<path d="M158.635 1.04541V15.0454L144.016 23.3181L143.698 23.6363L143.062 23.3181L128.444 15.0454V1.04541H124.948V17.2727L126.219 17.909L126.855 18.2272L141.791 26.8181L143.698 27.7727L145.605 26.8181L160.542 18.2272L161.177 17.909L162.448 17.2727V1.36359H158.635V1.04541ZM128.761 15.0454V17.2727L127.49 17.909L126.855 18.2272L141.791 26.8181V24.2727L143.062 23.6363L128.761 15.0454Z" fill="black"/>
<path d="M185.647 1.04541V21.0909L178.973 24.909L177.067 25.8636L175.478 24.909L162.13 17.2727L160.541 16.3181V1.04541H185.647Z" fill="white"/>
<path d="M177.702 23.6365L177.067 23.9547L176.431 23.6365L162.13 15.3638V1.36377H158.634V17.2729L159.905 17.9092L160.223 18.2274L175.16 26.8183L177.067 27.7729L178.974 26.8183L185.647 23.0001V18.8638L177.702 23.6365Z" fill="black"/>
<path d="M26.4293 13.7727V16.3181L24.5225 17.2727L11.4927 24.909L9.58596 25.8636L7.67914 24.909L0.6875 20.7727V1.04541H26.4293V13.7727Z" fill="white"/>
<path d="M28.0183 1.04541H24.5225V14.7272V15.3636L9.90364 23.6363L9.58592 23.9545L8.95028 23.6363L0.369629 18.8636V23L7.6791 27.1363L9.58592 28.0909L11.4926 27.1363L26.4293 18.5454L26.7471 18.2272L28.0183 17.5909V15.0454V1.04541Z" fill="black"/>
<path d="M59.7988 1.04541V16.3181L57.892 17.2727L44.8621 24.909L42.9554 25.8636L41.3664 24.909L28.0187 17.2727L26.4297 16.3181V13.7727V1.04541H59.7988Z" fill="black"/>
<path d="M57.8914 1.04523V15.0452L43.2726 23.318L42.9549 23.6361L42.6371 23.318L28.0183 15.0452V14.4089V0.727051H24.5225V14.4089V16.9543L25.7936 17.5907L26.4293 17.9089L41.3659 26.4998L43.2726 27.4543L45.1794 26.4998L60.1161 17.9089L60.4339 17.5907L61.7051 16.9543V0.727051H57.8914V1.04523ZM44.8616 27.1361L59.7983 18.5452L59.1626 18.227L57.8914 17.5907V15.3634L43.2726 23.6361L44.5439 24.5907V27.1361H44.8616Z" fill="black"/>
<path d="M93.4857 13.4545V16.3181L91.5788 17.2727L78.549 24.909L76.6422 25.8636L74.7355 24.909L61.7056 17.2727L59.7988 16.3181V1.04541H93.4857V13.4545Z" fill="white"/>
<path d="M95.0742 1.04541H91.5784V14.409V15.0454L76.9596 23.3181L76.324 23.6363L75.6884 23.3181L61.3874 15.0454V1.04541H57.8916V17.2727L59.1628 17.909L59.7984 18.2272L74.735 26.8181L76.6418 27.7727L78.5486 26.8181L93.4852 18.2272L94.1208 17.909L95.392 17.2727V14.7272L95.0742 1.04541ZM61.7052 15.0454V17.2727L74.735 24.909V24.2727L76.0062 23.6363L61.7052 15.0454Z" fill="black"/>
<path d="M126.854 1.04541V16.3181L124.948 17.2727L111.918 24.909L110.011 25.8636L108.422 24.909L95.0744 17.2727L93.4854 16.3181V13.4545V1.04541H126.854Z" fill="white"/>
<path d="M124.948 1.04523V15.0452L110.329 23.318L110.011 23.6361L109.375 23.318L94.7566 15.0452V14.4089V1.04523H91.5786V14.4089V16.9543L92.8498 17.5907L93.4854 17.9089L108.422 26.4998L110.329 27.4543L112.236 26.4998L127.172 17.9089L127.808 17.5907L129.079 16.9543V0.727051H124.948V1.04523ZM95.0744 15.0452V16.9543L93.8033 17.5907L93.1676 17.9089L108.104 26.4998V23.9543L109.375 23.318L95.0744 15.0452Z" fill="black"/>
<path d="M126.854 54.8179V74.227L143.697 84.0906L160.541 74.227V54.8179L143.697 45.2725L126.854 54.8179Z" fill="black"/>
<path d="M161.812 53.5454L160.541 52.5909L145.604 44L143.698 43.0454L141.791 44L126.854 52.5909L125.583 53.5454L125.265 53.8636V56.0909V73.2727V75.5L126.854 76.4545L141.791 85.0454L143.698 86L145.604 85.0454L160.541 76.4545L162.13 75.5V54.1818L161.812 53.5454ZM128.761 73.2727V56.0909L143.698 47.5L158.634 56.0909V73.2727L143.698 81.8636L128.761 73.2727Z" fill="black"/>
<path d="M185.647 50.0452V78.9997L178.973 82.8179L177.067 84.0906L175.478 82.8179L162.13 75.1815L160.541 74.227V54.8179L162.13 53.8634L175.795 45.9088L177.067 45.2725L178.656 45.9088L185.647 50.0452Z" fill="white"/>
<path d="M178.974 44L177.067 43.0454L175.16 44L160.223 52.5909L158.952 53.5454L158.634 53.8636V75.1818L160.223 76.1363L175.16 84.7272L177.067 85.6818L178.974 84.7272L185.647 80.9091V77.0909L177.385 81.8636L162.448 73.2727V56.0909L177.385 47.5L185.647 52.2727V48.1363L178.974 44Z" fill="black"/>
<path d="M26.4293 72.3179V74.227L24.5225 75.4997L11.4927 83.1361L9.58596 84.0906L7.67914 83.1361L0.6875 78.9997V50.3634L8.31468 46.227L9.58596 45.2725L10.8571 46.227L24.5225 53.8634L26.4293 55.1361V56.727V72.3179Z" fill="white"/>
<path d="M28.0183 56.0906V53.8633L27.7005 53.5451L26.4293 52.9087L11.4926 44.3178L9.58592 43.3633L7.6791 44.3178L0.369629 48.4542V52.5906L9.2681 47.4996L24.2047 56.0906V73.2724L9.2681 81.8633L0.369629 76.7724V80.9087L7.6791 85.0451L9.58592 85.9996L11.4926 85.0451L26.4293 76.4542L28.0183 75.4996V73.2724V56.0906Z" fill="black"/>
<path d="M26.4297 55.1361V74.227L43.2731 84.0906L59.7988 74.227V54.8179L42.9554 45.2725L26.4297 55.1361Z" fill="black"/>
<path d="M61.7056 53.8633L61.3878 53.5451L60.1166 52.9087L45.18 44.3178L43.2732 43.3633L41.3665 44.3178L26.4298 52.9087L25.1586 53.5451L24.8408 53.8633V55.7724V72.9542V75.1815L26.4298 76.136L41.3665 84.7269L43.2732 85.6815L45.18 84.7269L60.1166 76.136L61.7056 75.1815V53.8633ZM42.9555 47.4996L57.892 56.0906V73.2724L42.9555 81.8633L28.0188 73.2724V56.0906L42.9555 47.4996Z" fill="black"/>
<path d="M59.7988 54.8179V74.227L76.6422 84.0906L93.4857 74.227V54.8179L76.6422 45.2725L59.7988 54.8179Z" fill="white"/>
<path d="M94.7569 53.5451L93.4857 52.9087L78.5491 44.3178L76.6423 43.3633L74.7356 44.3178L59.799 52.9087L58.5278 53.5451L58.21 53.8633V75.1815L59.799 76.136L74.7356 84.7269L76.6423 85.6815L78.5491 84.7269L93.4857 76.136L95.0747 75.1815V53.8633L94.7569 53.5451ZM61.7058 73.2724V56.0906L76.6423 47.4996L91.5789 56.0906V73.2724L76.6423 81.8633L61.7058 73.2724Z" fill="black"/>
<path d="M93.4854 54.8179V74.227L110.329 84.0906L126.854 74.227V54.8179L110.011 45.2725L93.4854 54.8179Z" fill="white"/>
<path d="M128.761 56.0909V53.8636L128.443 53.5454L127.172 52.5909L112.236 44L110.329 43.0454L108.422 44L93.4855 52.5909L92.2143 53.2272L91.8965 53.5454V74.8636L93.4855 75.8181L108.422 84.409L110.329 85.3636L112.236 84.409L127.172 75.8181L128.761 74.8636V72.6363V56.0909ZM95.0745 73.2727V56.0909L110.011 47.5L124.948 56.0909V73.2727L110.011 81.8636L95.0745 73.2727Z" fill="black"/>
<path d="M110.329 84.0909V103.5L126.855 113.046L143.698 103.5V84.0909L126.855 74.2273L110.329 84.0909Z" fill="white"/>
<path d="M145.605 83.1362L143.698 82.1817L128.761 73.5908L126.854 72.6362L124.948 73.5908L110.011 82.1817L108.422 83.1362V104.454L110.011 105.409L124.948 114L126.854 114.954L128.761 114L143.698 105.409L145.287 104.454L145.605 83.1362ZM111.918 102.545V85.3635L126.854 76.7726L141.791 85.3635V102.545L126.854 111.136L111.918 102.545Z" fill="black"/>
<path d="M143.698 84.0907V103.5L160.542 113.045L177.385 103.5V84.0907L160.542 74.2271L143.698 84.0907Z" fill="white"/>
<path d="M178.974 85.0451V82.8179L177.385 81.8633L162.448 73.2724L160.541 72.3179L158.635 73.2724L143.698 81.8633L142.109 82.8179V104.136L143.698 105.091L158.635 113.682L160.541 114.636L162.448 113.682L177.385 105.091L179.292 104.136V102.227L178.974 85.0451ZM160.541 111.136L145.605 102.545V85.3633L160.541 76.7724L175.478 85.3633V102.545L160.541 111.136Z" fill="black"/>
<path d="M185.648 78.9998V108.272L178.974 104.454L177.385 103.5V101.272L177.067 85.9998V84.0907L178.974 82.8179L185.648 78.9998Z" fill="black"/>
<path d="M177.385 81.8633L175.796 82.8178V85.0451V102.227V104.454L177.385 105.409L185.648 110.181V106.045L178.974 102.227V85.0451L185.648 81.2269V77.0906L177.385 81.8633Z" fill="black"/>
<path d="M9.58606 84.0907V103.5L7.67922 104.454L0.6875 108.591V78.9998L7.67922 83.1361L9.58606 84.0907Z" fill="black"/>
<path d="M11.4927 83.136L9.586 82.1815L0.6875 77.0906V81.2269L7.997 85.3633V102.545L0.6875 106.681V110.818L9.586 105.727L11.4927 104.772V83.136Z" fill="black"/>
<path d="M9.58643 84.0909V103.5L26.4298 113.045L43.2733 103.5V84.0909L26.4298 74.5454L9.58643 84.0909Z" fill="white"/>
<path d="M44.8622 83.1362L42.9555 82.1817L28.0189 73.5908L26.112 72.6362L24.2052 73.5908L9.26864 82.1817L7.36182 83.1362V104.773L9.26864 105.727L24.2052 114.318L26.112 115.273L28.0189 114.318L42.9555 105.727L44.5445 104.773L44.8622 83.1362ZM41.3665 85.0453V102.545L26.4299 111.136L11.4932 102.545V85.3635L26.4299 76.7726L41.3665 85.0453Z" fill="black"/>
<path d="M43.2725 84.0906V103.5L59.7982 113.045L76.6416 103.5V84.0906L59.7982 74.5452L43.2725 84.0906Z" fill="white"/>
<path d="M78.5484 85.0451V82.8179L76.9594 81.8633L62.0229 73.2724L60.116 72.3179L58.2092 73.2724L43.2726 81.8633L41.6836 82.8179V104.136L43.2726 105.091L58.2092 113.681L59.7982 115.272L61.705 114.318L76.6416 105.727L78.5484 104.772V102.545V85.0451ZM44.8616 102.545V85.3633L59.7982 76.7724L74.7349 85.3633V102.545L59.7982 111.136L44.8616 102.545Z" fill="black"/>
<path d="M76.6416 84.0909V103.5L93.4851 113.046L110.328 103.5V84.0909L93.4851 74.2273L76.6416 84.0909Z" fill="black"/>
<path d="M111.918 83.1362L110.011 82.1817L95.0745 73.5908L93.1677 72.6362L91.2609 73.5908L76.3243 82.1817L74.7354 83.1362V85.3635V102.545V104.773L76.3243 105.727L91.2609 114.318L93.1677 115.273L95.0745 114.318L110.011 105.727L111.918 104.773V83.1362ZM93.4855 76.4544L108.422 85.0453V102.545L93.4855 111.136L78.5489 102.545V85.3635L93.4855 76.4544Z" fill="black"/>
<path d="M110.329 141.682V161.091L126.855 170.636L143.698 161.091V141.682L126.855 132.136L110.329 141.682Z" fill="white"/>
<path d="M144.334 139.773L143.698 139.455L128.762 130.864L126.855 129.909L124.948 130.864L110.011 139.455L109.376 139.773L108.104 140.409V161.727L108.422 162.046L109.693 162.682L124.63 171.273L126.537 172.227L128.444 171.273L143.38 162.682L144.652 161.727L144.969 161.409V140.727L144.334 139.773ZM142.109 160.136L127.173 168.727L112.236 160.136V142.955L126.537 134.364L126.855 134.046L127.49 134.364L142.109 142.636V160.136Z" fill="black"/>
<path d="M143.698 141.682V161.091L160.542 170.636L177.385 161.091V141.682L160.542 131.818L143.698 141.682Z" fill="white"/>
<path d="M178.974 143.273V140.727L177.703 140.091L177.067 139.773L162.131 131.182L160.224 130.227L158.317 131.182L143.38 139.773L142.745 140.091L141.474 140.727V162.045L141.791 162.363L143.063 163.318L157.999 171.909L159.906 172.863L161.813 171.909L177.385 163L178.656 162.045L178.974 161.727V159.5V143.273ZM145.605 142.636L160.224 134.363L160.542 134.045L161.177 134.363L175.796 142.636V143.273V160.136L160.859 168.727L145.923 160.136V142.636H145.605Z" fill="black"/>
<path d="M185.648 136.909V165.863L178.974 162.045L177.385 161.091V159.5V144.227V141.682L178.974 140.727L185.648 136.909Z" fill="black"/>
<path d="M177.385 139.454L176.749 139.772L175.478 140.409V142.954V159.818V162.045L175.796 162.363L177.385 163L185.648 167.772V163.636L178.974 159.818V142.954V142.318L185.648 138.5V134.363L177.385 139.454Z" fill="black"/>
<path d="M9.58606 159.5V161.091L7.99704 162.045L0.6875 166.5V136.591L7.99704 140.727L9.58606 141.682V144.227V159.5Z" fill="black"/>
<path d="M11.4927 143.273V140.727L10.2215 140.091L9.90373 139.773L0.6875 134.682V138.818L7.997 142.954V143.591V160.454L0.6875 164.591V168.727L9.90373 163.318L11.175 162.682L11.4927 162.363V160.136V143.273Z" fill="black"/>
<path d="M9.58643 141.682V161.091L26.4298 170.954L43.2733 161.091V141.682L26.4298 132.136L9.58643 141.682Z" fill="white"/>
<path d="M43.5911 140.091L42.9556 139.773L28.0189 131.182L26.1121 130.227L24.2052 131.182L9.26864 139.773L8.633 140.091L7.36182 140.727V143.273V160.136V162.363L7.67964 162.682L8.95082 163.318L23.8875 171.909L25.7942 172.863L27.7011 171.909L42.6377 163.318L43.9089 162.363L44.2267 162.045V140.727L43.5911 140.091ZM41.3666 160.136L26.4299 168.727L11.4932 160.136V143.273V142.636L26.1121 134.363L26.4299 134.045L27.0655 134.363L41.6843 142.636V160.136H41.3666Z" fill="black"/>
<path d="M43.2725 141.682V161.091L59.7982 170.954L76.6416 161.091V141.682L59.7982 132.136L43.2725 141.682Z" fill="white"/>
<path d="M78.5489 143.273V140.727L77.2777 140.091L76.6421 139.773L61.7055 131.182L59.7986 130.227L57.8918 131.182L42.9552 139.773L42.6374 140.091L41.3662 140.727V162.045L41.6839 162.363L42.9552 163.318L57.8918 171.909L59.7986 172.863L61.7055 171.909L76.6421 163.318L77.9133 162.363L78.2311 162.045V159.818L78.5489 143.273ZM44.8619 142.636L59.4808 134.363L59.7986 134.045L60.4343 134.363L75.0531 142.636V143.273V160.136L60.1165 168.727L45.1798 160.136V142.636H44.8619Z" fill="black"/>
<path d="M76.6416 141.682V161.091L93.4851 170.636L110.328 161.091V141.682L93.4851 132.136L76.6416 141.682Z" fill="black"/>
<path d="M110.647 139.773L110.329 139.455L95.3924 130.864L93.4855 129.909L91.5787 130.864L76.6421 139.455L76.0065 139.773L74.7354 140.409V142.955V159.818V162.046L75.0531 162.364L76.3244 163.318L91.2609 171.909L93.1677 172.864L95.0745 171.909L110.011 163.318L111.282 162.682L111.6 162.364V140.727L110.647 139.773ZM108.422 160.136L93.4855 168.727L78.5489 160.136V143.273V142.636L93.1677 134.364L93.8034 134.046L94.4389 134.364L108.74 142.636V160.136H108.422Z" fill="black"/>
<path d="M126.854 113.045V132.454L143.698 142.318L160.541 132.454V113.045L143.698 103.5L126.854 113.045Z" fill="black"/>
<path d="M162.131 112.091L160.542 111.136L145.605 102.545L143.698 101.591L141.791 102.545L126.855 111.136L124.948 112.091V114.318V131.181V133.727L126.537 134.363L126.855 134.681L141.791 143.272L143.698 144.227L145.605 143.272L160.542 134.681L161.177 134.363L162.448 133.727L162.131 112.091ZM128.761 114.318L143.698 105.727L158.635 114.318V131.5L144.334 139.772L143.698 140.091L143.062 139.772L128.444 131.5V130.863L128.761 114.318Z" fill="black"/>
<path d="M185.647 108.273V137.227L178.973 141.045L177.384 142.318L175.478 141.045L162.448 133.409L160.541 132.455V113.045L162.448 112.091L175.478 104.455L177.384 103.5L178.973 104.455L185.647 108.273Z" fill="white"/>
<path d="M178.974 102.545L177.067 101.591L175.16 102.545L160.223 111.136L158.634 112.091V133.409L159.905 134.045L160.223 134.363L175.16 142.954L177.067 143.909L178.974 142.954L185.647 139.136V135L177.702 139.454L177.067 139.772L176.431 139.454L162.13 131.181V114L177.067 105.409L185.33 110.181V106.045L178.974 102.545Z" fill="black"/>
<path d="M26.4293 129.909V132.772L24.5225 133.727L11.4927 141.363L9.58596 142.318L7.67914 141.363L0.6875 137.227V108.909L7.67914 104.454L9.58596 103.5L11.4927 104.454L24.5225 112.091L26.4293 113.363V115.272V129.909Z" fill="white"/>
<path d="M28.0186 114.318L26.1117 115.272L24.2049 114.318L9.26841 105.727L24.2049 114.318V131.181V131.818L9.58623 140.091L10.8574 140.727V143.272L25.7939 134.681L26.4296 134.363L27.7007 133.727V131.181L28.0186 114.318ZM28.0186 114.318L26.1117 115.272L24.2049 114.318L9.26841 105.727L24.2049 114.318V131.181V131.818L9.58623 140.091L10.8574 140.727V143.272L25.7939 134.681L26.4296 134.363L27.7007 133.727V131.181L28.0186 114.318ZM28.0186 114.318V112.091L26.1117 111.136L11.1752 102.545L9.26841 101.591L7.36159 102.545L0.0522461 106.681V110.818L9.26841 105.727L24.2049 114.318V131.181V131.818L9.58623 140.091L9.26841 140.409L8.63277 140.091L0.0522461 135V139.136L7.36159 143.272L9.26841 144.227L11.1752 143.272L26.1117 134.681L26.7474 134.363L28.0186 133.727V131.181V114.318ZM28.0186 114.318L26.1117 115.272L24.2049 114.318L9.26841 105.727L24.2049 114.318V131.181V131.818L9.58623 140.091L10.8574 140.727V143.272L25.7939 134.681L26.4296 134.363L27.7007 133.727V131.181L28.0186 114.318ZM11.4929 143.272L26.4296 134.681L26.1117 134.363L24.8406 133.727V131.5L10.2218 139.772L11.4929 140.409V143.272Z" fill="black"/>
<path d="M26.4297 113.363V132.772L43.2731 142.318L59.7988 132.454V113.363L43.2731 103.5L26.4297 113.363Z" fill="black"/>
<path d="M43.5905 140.091L44.8616 140.727V141.363L57.8914 133.727V131.5L43.5905 140.091ZM28.3361 131.5V133.091L32.4675 135.318L41.6836 140.409L42.9549 139.772L28.3361 131.5ZM28.3361 131.5V133.091L32.4675 135.318L41.6836 140.409L42.9549 139.772L28.3361 131.5ZM28.3361 131.5V133.091L32.4675 135.318L41.6836 140.409L42.9549 139.772L28.3361 131.5ZM61.7051 112.091L59.7983 111.136L44.8616 102.545L42.9549 101.591L41.0481 102.545L26.1115 111.136L24.5225 112.091V114.318V131.181V133.727L25.7936 134.363L26.1115 134.681L41.0481 143.272L42.9549 144.227L44.8616 143.272L59.7983 134.681L60.4339 134.363L61.7051 133.727V112.091ZM28.0183 114.318L42.9549 105.727L57.8914 114.318V131.5L43.5905 139.772L42.9549 140.091L42.6371 139.772L28.0183 131.5V131.181V114.318ZM28.3361 131.5V133.091L32.4675 135.318L41.6836 140.409L42.9549 139.772L28.3361 131.5ZM28.3361 131.5V133.091L32.4675 135.318L41.6836 140.409L42.9549 139.772L28.3361 131.5Z" fill="black"/>
<path d="M59.7988 113.364V132.455L76.6422 142.318L93.4857 132.455V113.045L76.6422 103.5L59.7988 113.364Z" fill="white"/>
<path d="M95.0742 112.091L93.1673 111.136L78.2307 102.545L76.324 101.591L74.4172 102.545L59.4806 111.136L57.8916 112.091V133.409L59.1628 134.045L59.4806 134.363L74.4172 142.954L76.324 143.909L77.913 142.954L92.8495 134.363L93.4852 134.045L94.7563 133.409L95.0742 112.091ZM91.5783 131.5L77.2774 139.772L76.6417 140.091L76.0062 139.772L61.7052 131.5V114.318L76.6417 105.727L91.5783 114.318V131.5Z" fill="black"/>
<path d="M93.4854 113.045V132.454L110.329 142.318L126.854 132.454V113.045L110.329 103.5L93.4854 113.045Z" fill="white"/>
<path d="M128.761 114.318V112.091L126.854 111.136L111.918 102.545L110.011 101.591L108.104 102.545L93.1676 111.136L91.5786 112.091V133.727L92.8498 134.363L93.4854 134.681L108.422 143.272L110.329 144.227L112.236 143.272L127.172 134.681L127.808 134.363L129.079 133.727V131.181L128.761 114.318ZM125.265 131.5L110.647 139.772L110.329 140.091L109.693 139.772L95.0744 131.5V114.318L110.011 105.727L124.948 114.318V131.181V131.5H125.265Z" fill="black"/>
<path d="M160.541 184.954H127.172L126.854 172.863V171.272L128.761 170.317L142.426 162.363L143.697 161.727L144.969 162.363L158.634 170.317L160.541 171.272V172.863V184.954Z" fill="black"/>
<path d="M162.448 172.227V170L162.13 169.681L160.859 169.045L145.922 160.454L144.015 159.5L142.109 160.454L127.172 169.045L125.901 169.681L125.583 170V171.909V184.636H129.079V171.909L144.015 163.318L158.952 171.909V184.636H162.448V172.227Z" fill="black"/>
<path d="M185.647 166.181V184.954H160.541V172.863V171.272L162.448 170.318L175.795 162.363L177.384 161.409L178.656 162.363L185.647 166.181Z" fill="white"/>
<path d="M178.974 160.454L177.067 159.5L175.16 160.454L160.223 169.045L158.952 169.681L158.634 169.999V172.227V184.954H162.13V172.227L177.067 163.636L185.33 168.409V164.272L178.974 160.454Z" fill="black"/>
<path d="M26.4293 171.273V184.954H0.6875V166.818L8.31468 162.363L9.58596 161.727L11.175 162.363L24.5225 170.318L26.4293 171.273Z" fill="white"/>
<path d="M27.7005 170L26.4293 169.363L11.4926 160.772L9.58592 159.818L7.6791 160.772L0.369629 164.909V169.045L9.58592 163.636L24.5225 172.227V184.954H28.0183V170.318L27.7005 170Z" fill="black"/>
<path d="M60.1167 184.954H26.4297V171.273L28.3365 170.318L41.6841 162.363L43.2731 161.727L44.5444 162.363L58.2099 170.318L59.7989 171.273V172.863L60.1167 184.954Z" fill="black"/>
<path d="M61.7051 172.227V170L61.3873 169.682L59.7983 169.363L44.8616 160.772L42.9549 159.818L41.0481 160.772L26.1115 169.363L24.8403 170L24.5225 170.318V184.954H28.0183V172.227L42.9549 163.636L57.8914 172.227V184.954H61.3873L61.7051 172.227Z" fill="black"/>
<path d="M93.4857 171.273V184.954H60.1166L59.7988 172.863V171.273L61.7056 170.318L75.371 162.363L76.6422 161.727L78.2312 162.363L91.5788 170.318L93.4857 171.273Z" fill="white"/>
<path d="M94.7569 170L93.4857 169.363L78.5491 160.772L76.6423 159.818L74.7356 160.772L59.799 169.363L58.5278 170L58.21 170.318V172.545V185.272H61.7058V172.545L76.6423 163.954L91.5789 172.545V185.272H95.0747V170.636L94.7569 170Z" fill="black"/>
<path d="M127.172 184.954H93.4854V171.272L95.3922 170.317L108.74 162.363L110.329 161.727L111.6 162.363L125.265 170.317L126.854 171.272V172.863L127.172 184.954Z" fill="white"/>
<path d="M128.761 172.227V170L128.443 169.681L127.172 169.045L112.236 160.454L110.329 159.5L108.422 160.454L93.4855 169.045L92.2143 169.681L91.8965 170V184.636H95.3923V171.909L110.329 163.318L125.265 171.909V184.636H128.761V172.227Z" fill="black"/>
</svg>
