<svg width="62" height="62" viewBox="0 0 62 62" fill="none" xmlns="http://www.w3.org/2000/svg">
<path d="M60.9975 31C60.9975 47.5686 47.5666 61 30.9988 61C14.4309 61 1 47.5686 1 31C1 14.4314 14.4309 1 30.9988 1C47.5666 1 60.9975 14.4314 60.9975 31Z" fill="white" stroke="black" stroke-width="2"/>
<path d="M19.9081 20.2172C20.4769 20.5901 21.0457 20.4969 21.5196 20.0308C22.0884 19.5647 22.278 19.0986 21.8988 18.6324C21.6144 18.3528 21.33 18.3528 20.7613 18.6324L19.2445 19.3782C18.1069 19.9376 16.8746 20.0308 15.9266 18.9121C14.789 17.607 15.1682 15.8358 16.685 14.6239C18.2965 13.3187 20.0029 13.412 21.1405 14.3442L19.4341 15.7425C18.9601 15.4629 18.4861 15.4629 17.8225 15.929C17.3485 16.3019 17.1589 16.8612 17.4433 17.2341C17.7277 17.5138 18.0121 17.5138 18.4861 17.3273L20.0977 16.5815C21.5196 15.929 22.6572 16.0222 23.5104 17.0477C24.648 18.446 24.174 20.124 22.6572 21.3359C21.0457 22.641 19.3393 22.8275 18.0121 21.7088L19.9081 20.2172Z" fill="black"/>
<path d="M25.0274 15.4628L24.3638 10.4288L26.5441 10.1491L27.2077 14.9967C27.3973 16.2086 28.0609 16.7679 29.0089 16.5815C29.9568 16.4883 30.4308 15.7425 30.2412 14.5306L29.5777 9.68299L31.8528 9.40332L32.5164 14.4374C32.8008 16.7679 31.5684 18.2595 29.1985 18.5392C27.0181 18.9121 25.3117 17.7934 25.0274 15.4628Z" fill="black"/>
<path d="M40.9528 18.912C40.2892 20.3103 38.962 20.59 37.2556 19.8442L33.6533 18.1662L37.4452 10.4287L40.7632 12.0135C42.3747 12.7593 43.0383 13.9712 42.3747 15.3695C41.9955 16.2085 41.2371 16.5814 40.5736 16.4882C41.1423 17.0475 41.3319 18.073 40.9528 18.912ZM36.4025 17.4204L37.8244 18.073C38.3932 18.3527 38.8672 18.1662 39.0568 17.7933C39.2464 17.3272 39.0568 16.8611 38.488 16.5814L37.066 15.9289L36.4025 17.4204ZM39.0568 14.9966C39.6256 15.2763 40.0996 15.1831 40.2892 14.717C40.4788 14.2509 40.2892 13.878 39.7204 13.5983L38.5828 13.039L37.9192 14.4373L39.0568 14.9966Z" fill="black"/>
<path d="M42.2802 24.5052L45.9774 20.4966L41.4271 22.9204L40.3843 21.0559L48.0629 16.9541L49.3901 19.3779L45.5034 23.6662L51.1912 22.7339L52.5184 25.1577L44.8398 29.2595L43.797 27.3951L48.3473 24.9713L42.9438 25.8103L42.2802 24.5052Z" fill="black"/>
<path d="M44.1758 32.4295V30.1921H52.8973V32.4295H44.1758Z" fill="black"/>
<path d="M52.7082 36.2516L49.6747 43.1501L47.8735 42.4043L48.9163 39.9805L42.6597 37.3702L43.6076 35.3193L49.8643 37.9296L50.907 35.5058L52.7082 36.2516Z" fill="black"/>
</svg>
