<?xml version="1.0" encoding="utf-8"?>
<!-- Generator: Adobe Illustrator 18.1.1, SVG Export Plug-In . SVG Version: 6.00 Build 0)  -->
<svg version="1.1" id="Layer_1" xmlns="http://www.w3.org/2000/svg" xmlns:xlink="http://www.w3.org/1999/xlink" x="0px" y="0px"
	 viewBox="-128 1575 62 62" enable-background="new -128 1575 62 62" xml:space="preserve">
<path fill="#E427FF" stroke="#000000" stroke-width="2" d="M-67,1606c0,16.6-13.4,30-30,30c-16.6,0-30-13.4-30-30s13.4-30,30-30
	C-80.4,1576-67,1589.4-67,1606z"/>
<path d="M-107.3,1594.9c0.6,0.4,1.1,0.3,1.6-0.2c0.6-0.5,0.8-0.9,0.4-1.4c-0.3-0.3-0.6-0.3-1.1,0l-1.5,0.7c-1.1,0.6-2.4,0.7-3.3-0.5
	c-1.1-1.3-0.8-3.1,0.8-4.3c1.6-1.3,3.3-1.2,4.5-0.3l-1.7,1.4c-0.5-0.3-0.9-0.3-1.6,0.2c-0.5,0.4-0.7,0.9-0.4,1.3
	c0.3,0.3,0.6,0.3,1,0.1l1.6-0.7c1.4-0.7,2.6-0.6,3.4,0.5c1.1,1.4,0.7,3.1-0.9,4.3c-1.6,1.3-3.3,1.5-4.6,0.4L-107.3,1594.9z"/>
<path d="M-102.2,1590.1l-0.7-5l2.2-0.3l0.7,4.8c0.2,1.2,0.9,1.8,1.8,1.6c0.9-0.1,1.4-0.8,1.2-2.1l-0.7-4.8l2.3-0.3l0.7,5
	c0.3,2.3-0.9,3.8-3.3,4.1C-100.2,1593.6-101.9,1592.5-102.2,1590.1z"/>
<path d="M-86.3,1593.6c-0.7,1.4-2,1.7-3.7,0.9l-3.6-1.7l3.8-7.7l3.3,1.6c1.6,0.7,2.3,2,1.6,3.4c-0.4,0.8-1.1,1.2-1.8,1.1
	C-86.1,1591.7-85.9,1592.7-86.3,1593.6z M-90.8,1592.1l1.4,0.7c0.6,0.3,1,0.1,1.2-0.3c0.2-0.5,0-0.9-0.6-1.2l-1.4-0.7L-90.8,1592.1z
	 M-88.2,1589.7c0.6,0.3,1,0.2,1.2-0.3c0.2-0.5,0-0.8-0.6-1.1l-1.1-0.6l-0.7,1.4L-88.2,1589.7z"/>
<path d="M-85,1599.2l3.7-4l-4.6,2.4l-1-1.9l7.7-4.1l1.3,2.4l-3.9,4.3l5.7-0.9l1.3,2.4l-7.7,4.1l-1-1.9l4.6-2.4l-5.4,0.8L-85,1599.2z
	"/>
<path d="M-83.1,1607.1v-2.2h8.7v2.2H-83.1z"/>
<path d="M-74.5,1610.9l-3,6.9l-1.8-0.7l1-2.4l-6.3-2.6l0.9-2.1l6.3,2.6l1-2.4L-74.5,1610.9z"/>
</svg>
