<svg width="41" height="32" viewBox="0 0 41 32" fill="none" xmlns="http://www.w3.org/2000/svg">
<path d="M36.4393 8.08849C36.4393 8.41529 36.4393 8.7421 36.4393 9.06891C36.4393 19.5267 28.2129 31.6186 13.2712 31.6186C8.73825 31.6186 4.37324 30.3114 0.847656 28.0237C1.5192 28.0237 2.19073 28.1871 2.86227 28.1871C6.72363 28.1871 10.2492 26.8799 12.9354 24.7556C9.40979 24.7556 6.38786 22.468 5.38055 19.1999C5.88421 19.3633 6.38786 19.3633 6.89152 19.3633C7.56306 19.3633 8.40248 19.1999 9.07402 19.0365C5.38055 18.3829 2.52651 15.1148 2.52651 11.1932C2.52651 11.1932 2.52651 11.1932 2.52651 11.0298C3.7017 11.6834 4.87689 12.0102 6.21998 12.0102C4.03747 10.5395 2.52651 8.08849 2.52651 5.47403C2.52651 4.0034 2.86227 2.69617 3.7017 1.55235C7.73094 6.29105 13.7748 9.55912 20.4902 9.88593C20.3223 9.23231 20.3223 8.7421 20.3223 8.08849C20.3223 3.67659 24.0158 0.245117 28.3808 0.245117C30.7312 0.245117 32.9137 1.22554 34.2568 2.69617C36.1035 2.36936 37.7824 1.71575 39.4612 0.735328C38.7897 2.53277 37.6145 4.1668 35.9357 5.14722C37.6145 4.98382 39.1255 4.49361 40.6364 3.83999C39.4612 5.63743 37.9503 7.10807 36.4393 8.08849Z" fill="black"/>
</svg>
