<svg width="243" height="200" viewBox="0 0 243 200" fill="none" xmlns="http://www.w3.org/2000/svg">
<path d="M214.972 8.68213L177.154 176.046H172.069L139.971 33.8185H102.153L70.3728 176.046H64.9702L27.1519 8.68213H9.99072L48.7623 191.318H49.0801H49.398H86.2628H86.5806L118.678 46.8639H123.445L155.543 191.318H155.861H156.179H193.044H193.361L232.451 8.68213H214.972Z" fill="black"/>
<path d="M199.717 199.273H149.823L147.916 192.909L121.221 72.3185L92.9363 199.273H42.7239L41.1349 192.909L0.138672 0.727539H33.8255L67.8301 151.228L96.1143 25.8639H146.645L174.929 151.228L208.933 0.727539H242.302L199.717 199.273ZM183.509 183.364H186.687L222.281 16.9548H221.01L183.509 183.364ZM162.217 183.364H165.713L133.933 41.773H130.755L162.217 183.364ZM76.7285 183.364H80.2243L111.687 41.773H108.509L76.7285 183.364ZM55.4359 183.364H58.6139L20.7957 16.6366H19.5245L55.4359 183.364Z" fill="black"/>
</svg>
