<svg xmlns="http://www.w3.org/2000/svg" viewBox="0 0 830.69 400"><defs><style>.a{fill:#fff;}</style></defs><circle class="a" cx="200" cy="200" r="193.75"/><path d="M200,400C89.72,400,0,310.28,0,200S89.72,0,200,0,400,89.72,400,200,310.28,400,200,400ZM200,6.4C93.25,6.4,6.4,93.25,6.4,200S93.25,393.6,200,393.6,393.59,306.75,393.59,200,306.75,6.4,200,6.4Z"/><path d="M45.57,169.69l31.74-3L48,154.59l2.21-13.67,49.59,22-2,12.4-31.66,3.11,29.06,13-2,12.4-54,5.22,2.23-13.84,31.63-2.33L43.91,180Z"/><path d="M116.29,138.38c-9,12.19-24.37,13.8-37,4.54s-15.65-24.46-6.69-36.65,24.4-14,37.08-4.67S125.3,126.12,116.29,138.38Zm-33.95-25c-4.2,5.72-2.12,13,5.18,18.35s14.86,5.19,19.06-.52,2.22-13.12-5.08-18.49S86.54,107.69,82.34,113.41Z"/><path d="M151.48,107,128.42,83.3l13.13,28.3L129.92,117l-22.09-47.6,15.19-7L147.24,87.1l-3.36-34.44,15.12-7,22.09,47.6-11.7,5.44-13.14-28.3,3.29,32.87Z"/><path d="M228,44l-.66,11.78-24-1.34-.46,8.19,21.93,1.23-.64,11.52-21.93-1.23-.51,9,24,1.34-.66,11.86-37.46-2.1,2.93-52.39Z"/><path d="M271.48,119.9l-9.69-5.43L257.62,77l-15,26.76-11.56-6.47,25.64-45.78,11.19,6.27,3.55,35.09,14.11-25.2,11.56,6.47Z"/><path d="M295.23,155.64l-6.6-12.07,46.06-25.18,6.6,12.08Z"/><path d="M307.23,206l-1.79-11,26.72-26.63-30.27,5-2.14-13.07,51.77-8.49,2.08,12.65-25.23,24.66,28.5-4.67L359,197.53Z"/><path d="M74.18,268.5c-2.47,2.84-2.37,6.39-.12,10s5.26,5.08,8,3.37c2.1-1.3,2.19-3.27,1.09-6.5l-3.49-9.7c-2.59-7.43-2.24-14.49,5.32-19.17,8.71-5.4,19-1.69,25.07,8.19,6.75,10.9,4.61,20.76-2.32,26.77l-7.06-11.41c1.88-2.47,2.51-5.68.12-9.53-2.06-3.34-4.91-4.69-7.38-3.16-2,1.21-2.2,3.27-1.27,5.91l3.37,10c2.9,8.75,1.37,15.52-5.53,19.8-9.15,5.66-19.15,1.2-25.18-8.53-6.61-10.68-5.95-21.14,1.85-28.18Z"/><path d="M108.94,330.89c-12.43-8.63-14.45-24-5.51-36.84s24-16.29,36.46-7.65,14.63,24,5.65,36.94S121.43,339.58,108.94,330.89ZM133,296.3c-5.82-4.06-13-1.78-18.2,5.66s-4.8,15,1,19,13.17,1.87,18.35-5.57S138.83,300.34,133,296.3Z"/><path d="M181.94,303.74c12.85,2.38,19,11.43,18.9,22.27l-13.44-2.49c-.65-4-3-7.06-7.66-7.93-7.14-1.33-12.34,4.22-13.91,12.71s1.29,15.53,8.43,16.86c4.7.87,7.94-1.13,10-4.75l13.44,2.49c-3.81,10.25-12.79,16.49-25.64,14.11-14.46-2.68-22.75-15.6-19.85-31.23S167.49,301.06,181.94,303.74Z"/><path d="M225.24,302.23c12.74-3,22,2.82,26.28,12.8l-13.32,3.12c-2.21-3.43-5.54-5.28-10.2-4.19-7.07,1.67-9.6,8.84-7.63,17.25s7.43,13.7,14.51,12c4.66-1.09,6.82-4.23,7.25-8.37l13.31-3.13c.63,10.92-5.07,20.25-17.81,23.24-14.31,3.36-27.1-5.14-30.74-20.61S210.93,305.59,225.24,302.23Z"/><path d="M277.43,275.1l6.88,9.58-19.52,14,4.78,6.67,17.85-12.8,6.72,9.37-17.85,12.8,5.28,7.37,19.52-14,6.92,9.65-30.49,21.87L246.94,297Z"/><path d="M317.9,278.16,332.82,287l-6.94,11.68-45.11-26.8,12-20.27c5.77-9.71,15.25-13.12,25.09-7.27,6.83,4.06,9.49,10.31,8.27,17l22.44-1-7.76,13.08-20.5.54Zm-9.4-5.59,4.36-7.35c2.49-4.18,1.5-7.36-1.81-9.32s-6.57-1.32-9.06,2.87l-4.36,7.34Z"/><polygon points="718 275.05 671.13 66.41 586.94 66.41 540.07 275.04 483.27 24.68 427.38 24.68 495.86 344.17 498.74 354.63 582.04 354.63 629.03 143.46 673.72 344.27 676.67 354.63 759.98 354.63 830.69 24.68 774.8 24.68 718 275.05"/></svg>