<svg width="241" height="242" viewBox="0 0 241 242" fill="none" xmlns="http://www.w3.org/2000/svg">
<path d="M240.893 121C240.893 187.5 186.867 241.591 120.446 241.591C54.0261 241.591 0 187.5 0 121C0 54.5001 54.0261 0.40918 120.446 0.40918C186.867 0.40918 240.893 54.5001 240.893 121Z" fill="white"/>
<path d="M120.447 1.36377C54.6619 1.36377 0.953613 55.1365 0.953613 121C0.953613 186.864 54.6619 240.636 120.447 240.636C186.231 240.636 239.939 186.864 239.939 121C239.939 55.1365 186.231 1.36377 120.447 1.36377ZM120.447 238.727C55.6153 238.727 2.86041 185.909 2.86041 121C2.86041 56.091 55.6153 3.27286 120.447 3.27286C185.278 3.27286 238.033 56.091 238.033 121C238.033 185.909 185.278 238.727 120.447 238.727Z" fill="black"/>
<path d="M120.446 0.40918C54.0261 0.40918 0 54.5001 0 121C0 187.5 54.0261 241.591 120.446 241.591C186.867 241.591 240.893 187.5 240.893 121C240.893 54.5001 186.867 0.40918 120.446 0.40918ZM120.446 237.773C56.2507 237.773 3.8136 185.591 3.8136 121C3.8136 56.7274 56.2507 4.22736 120.446 4.22736C184.642 4.22736 237.079 56.7274 237.079 121C237.079 185.591 184.642 237.773 120.446 237.773Z" fill="black"/>
<path d="M60.3819 97.7726L30.8265 84.0908L29.2375 92.3635L46.7165 99.9999L27.6485 101.591L26.6951 107.636L44.1741 115.591L25.1061 116.864L23.5171 125.136L55.9327 122.591L57.2039 115.273L39.7249 107.318L58.7929 105.727L60.3819 97.7726Z" fill="black"/>
<path d="M68.0092 59.9089C60.6998 53.8634 51.1658 54.818 45.7632 61.818C40.0428 69.1361 41.6318 78.0452 48.9412 84.0907C56.2506 89.818 65.7846 89.1816 71.1872 82.1816C76.9076 74.8634 75.6364 65.6361 68.0092 59.9089ZM65.7846 77.7271C63.2422 81.2271 58.4752 80.9089 54.3438 77.7271C49.8946 74.2271 48.9412 70.0907 51.4836 66.5907C54.026 63.0907 58.793 63.0907 62.9244 66.5907C67.3736 69.7725 68.327 74.2271 65.7846 77.7271Z" fill="black"/>
<path d="M111.866 56.0908L99.4715 27.1362L90.2553 30.9544L91.5265 51.6362L77.2255 36.3635L68.0093 40.4999L80.4035 69.4544L87.3951 66.2726L80.0857 49.0908L93.4333 63.7271L98.2003 61.4999L96.9291 41.7726L104.239 58.9544L111.866 56.0908Z" fill="black"/>
<path d="M139.832 34.7727L140.468 27.7727L118.222 25.5454L115.361 57.0454L137.925 59.2727L138.561 52.2727L123.942 50.6818L124.578 45.2727L137.607 46.5454L138.243 39.5454L125.213 38.2727L125.531 33.1818L139.832 34.7727Z" fill="black"/>
<path d="M173.519 42.4094L164.621 57.3639L163.032 36.0457L156.358 32.2275L140.468 59.5912L147.459 63.7275L156.676 47.8184L158.9 70.4093L164.621 73.9093L180.511 46.5457L173.519 42.4094Z" fill="black"/>
<path d="M199.578 68.8184L172.565 85.0456L176.697 92.0456L203.71 75.8184L199.578 68.8184Z" fill="black"/>
<path d="M214.515 107.636L197.354 111.136L211.973 95.5455L210.384 87.9092L179.557 94.2728L181.146 102.227L199.261 98.4092L184.006 115.273L185.278 121.955L216.104 115.591L214.515 107.636Z" fill="black"/>
<path d="M65.7845 152.818C62.2887 146.773 56.2505 144.545 50.8479 147.409C46.3987 150.273 46.0809 154.409 47.3521 158.863L49.2589 164.909C49.8945 166.818 49.8945 168.091 48.6233 168.727C47.0343 169.682 45.1275 168.727 43.8563 166.5C42.5851 164.273 42.5851 162.045 44.1741 160.454L39.7249 153.136C34.9579 157.273 34.3223 163.636 38.1359 170C41.6317 176.045 47.6699 178.909 53.0725 175.409C57.2039 172.863 58.1573 168.727 56.5683 163.636L54.6615 157.591C54.0259 156 54.3437 154.727 55.6149 154.091C57.2039 153.136 58.7929 154.091 60.0641 156C61.3353 158.227 61.0175 160.136 59.7463 161.727L63.8777 168.727C68.3269 165.545 69.5981 159.5 65.7845 152.818Z" fill="black"/>
<path d="M83.264 172.546C75.9546 167.136 66.7384 169.046 61.3358 176.682C55.9332 184.318 56.8866 193.546 64.196 198.955C71.5054 204.364 80.7216 202.455 86.442 194.818C91.8446 187.182 90.5734 177.955 83.264 172.546ZM79.4504 190.046C76.2724 194.5 71.8232 195.773 68.3274 193.227C64.8316 190.682 64.8316 186.227 68.0096 181.773C71.1876 177.318 75.6368 176.046 79.1326 178.591C82.6284 180.818 82.6284 185.591 79.4504 190.046Z" fill="black"/>
<path d="M104.556 208.5C100.107 207.546 98.5183 203.41 99.4717 198.319C100.425 193.228 103.603 189.728 107.735 190.682C110.595 191.319 111.866 192.91 112.184 195.455L120.129 197.046C120.129 190.364 116.633 184.955 108.688 183.682C100.107 182.091 92.4801 187.5 90.8911 197.046C88.9843 206.591 94.0691 214.228 102.65 215.819C110.277 217.41 115.68 213.591 118.222 207.228L110.277 205.637C109.324 207.864 107.417 209.137 104.556 208.5Z" fill="black"/>
<path d="M146.188 202.137C145.87 204.682 144.599 206.591 141.739 207.228C137.607 208.182 134.111 205 132.84 199.91C131.569 194.819 133.158 190.682 137.289 189.41C140.15 188.773 142.056 189.728 143.328 191.955L151.273 190.046C148.73 184 143.01 180.5 135.383 182.41C126.802 184.637 122.035 192.591 124.577 201.819C126.802 211.046 134.429 216.137 143.328 214.228C150.955 212.319 154.451 206.591 153.815 200.228L146.188 202.137Z" fill="black"/>
<path d="M182.417 185.273L170.658 193.864L167.48 189.41L177.968 181.455L173.836 175.728L163.349 183.682L160.489 179.864L172.247 171.273L167.798 165.546L149.684 178.91L168.434 204.364L186.548 191L182.417 185.273Z" fill="black"/>
<path d="M206.252 163.637L210.701 155.682L197.036 156.637C197.672 152.5 196.083 148.682 191.951 146.455C185.913 142.955 180.193 145.182 177.015 151.228L170.023 163.637L197.354 179.228L201.485 172.228L192.269 167.137L193.54 164.591L206.252 163.637ZM189.091 158.864L186.549 163.318L179.875 159.5L182.417 155.046C184.006 152.5 185.913 152.182 187.82 153.137C190.044 154.409 190.68 156.318 189.091 158.864Z" fill="black"/>
</svg>
