<svg width="240" height="241" viewBox="0 0 240 241" fill="none" xmlns="http://www.w3.org/2000/svg">
<path d="M119.699 236.488C183.744 236.488 235.662 184.551 235.662 120.484C235.662 56.4164 183.744 4.47949 119.699 4.47949C55.6553 4.47949 3.7373 56.4164 3.7373 120.484C3.7373 184.551 55.6553 236.488 119.699 236.488Z" fill="white"/>
<path d="M119.7 240.259C53.6891 240.259 0 186.519 0 120.484C0 54.4494 53.6891 0.740723 119.7 0.740723C185.71 0.740723 239.4 54.4494 239.4 120.484C239.4 186.519 185.71 240.259 119.7 240.259ZM119.7 4.57479C55.8113 4.57479 3.83267 56.5724 3.83267 120.484C3.83267 184.396 55.8113 236.394 119.7 236.394C183.588 236.394 235.567 184.428 235.567 120.484C235.567 56.5407 183.588 4.57479 119.7 4.57479Z" fill="black"/>
<path d="M27.2723 102.359L46.2772 100.553L28.761 93.3285L30.0913 85.1533L59.7708 98.3349L58.5671 105.75L39.6255 107.619L57.0151 115.414L55.8114 122.829L23.5029 125.966L24.8333 117.695L43.7749 116.301L26.2903 108.506L27.2723 102.359Z" fill="black"/>
<path d="M69.5902 83.6008C64.2371 90.8887 54.988 91.871 47.4494 86.3258C39.879 80.749 38.0736 71.6867 43.4583 64.3987C48.8431 57.0475 58.0605 56.0335 65.6625 61.6103C73.2011 67.1238 75.0066 76.2495 69.5902 83.6008ZM49.2865 68.6447C46.7842 72.0669 48.0195 76.4079 52.3907 79.64C56.7618 82.8403 61.2913 82.7453 63.7937 79.3231C66.296 75.901 65.124 71.4649 60.7529 68.2645C56.3817 65.0325 51.7888 65.2226 49.2865 68.6447Z" fill="black"/>
<path d="M90.6543 64.8106L76.844 50.6151L84.6994 67.5674L77.7309 70.7994L64.5225 42.3132L73.6132 38.0989L88.1203 52.9282L86.1248 32.3003L95.1838 28.0859L108.424 56.6038L101.424 59.8675L93.5684 42.9152L95.5323 62.5926L90.6543 64.8106Z" fill="black"/>
<path d="M136.488 27.1037L136.108 34.1698L121.759 33.3776L121.474 38.289L134.587 39.0178L134.207 45.9255L121.094 45.1967L120.777 50.6151L135.126 51.4073L134.714 58.5051L112.288 57.2376L114.03 25.8679L136.488 27.1037Z" fill="black"/>
<path d="M162.493 72.5423L156.697 69.2786L154.194 46.8445L145.23 62.8779L138.325 59.0121L153.656 31.6033L160.339 35.3423L162.462 56.3505L170.919 41.2677L177.824 45.1334L162.493 72.5423Z" fill="black"/>
<path d="M176.715 93.9304L172.756 86.7058L200.313 71.623L204.272 78.8476L176.715 93.9304Z" fill="black"/>
<path d="M183.906 124.096L182.829 117.537L198.825 101.599L180.706 104.577L179.439 96.7508L210.418 91.6809L211.653 99.254L196.544 114.02L213.617 111.232L214.884 119.058L183.906 124.096Z" fill="black"/>
<path d="M44.4083 161.518C42.9196 163.229 42.9829 165.352 44.345 167.507C45.6753 169.63 47.4808 170.549 49.1596 169.535C50.4266 168.743 50.4582 167.57 49.8247 165.638L47.7342 159.839C46.1821 155.403 46.4038 151.157 50.9017 148.368C56.1281 145.136 62.2413 147.354 65.9156 153.28C69.97 159.807 68.6714 165.701 64.5219 169.313L60.3092 162.469C61.4495 160.98 61.8296 159.078 60.3725 156.765C59.1372 154.769 57.4267 153.945 55.938 154.864C54.766 155.593 54.6077 156.829 55.1778 158.413L57.205 164.402C58.9471 169.63 58.0286 173.686 53.9108 176.253C48.431 179.643 42.4445 176.981 38.8335 171.151C34.8741 164.75 35.2859 158.508 39.9421 154.294L44.4083 161.518Z" fill="black"/>
<path d="M65.1866 198.877C57.743 193.712 56.5394 184.491 61.8924 176.823C67.2772 169.092 76.2729 167.064 83.7165 172.229C91.1918 177.425 92.4905 186.614 87.1057 194.346C81.7526 202.046 72.6936 204.074 65.1866 198.877ZM79.5987 178.154C76.1145 175.714 71.8067 177.077 68.7026 181.544C65.5984 186.012 65.8201 190.512 69.3044 192.952C72.7886 195.36 77.1915 194.061 80.2956 189.625C83.3998 185.157 83.083 180.594 79.5987 178.154Z" fill="black"/>
<path d="M108.898 182.622C116.595 184.048 120.269 189.466 120.206 195.962L112.16 194.472C111.78 192.064 110.386 190.258 107.567 189.719C103.291 188.927 100.187 192.254 99.2368 197.324C98.3182 202.362 99.997 206.608 104.273 207.432C107.092 207.939 109.024 206.767 110.26 204.58L118.305 206.07C116.025 212.217 110.64 215.956 102.943 214.53C94.2955 212.914 89.3225 205.182 91.0647 195.835C92.8385 186.456 100.25 181.006 108.898 182.622Z" fill="black"/>
<path d="M134.809 181.703C142.443 179.928 147.986 183.382 150.52 189.371L142.538 191.24C141.207 189.181 139.212 188.072 136.424 188.737C132.18 189.72 130.691 194.029 131.863 199.067C133.035 204.042 136.298 207.274 140.542 206.292C143.329 205.626 144.628 203.757 144.881 201.285L152.864 199.416C153.244 205.943 149.823 211.552 142.189 213.326C133.637 215.354 125.972 210.252 123.786 200.968C121.664 191.684 126.257 183.731 134.809 181.703Z" fill="black"/>
<path d="M166.041 165.447L170.158 171.183L158.47 179.548L161.321 183.54L171.996 175.872L176.018 181.481L165.344 189.149L168.511 193.553L180.199 185.188L184.349 190.955L166.104 204.042L147.796 178.502L166.041 165.447Z" fill="black"/>
<path d="M190.273 167.285L199.205 172.577L195.055 179.58L168.068 163.546L175.29 151.41C178.743 145.612 184.413 143.552 190.304 147.069C194.39 149.509 195.974 153.248 195.245 157.272L208.676 156.702L204.019 164.529L191.761 164.846L190.273 167.285ZM184.634 163.958L187.232 159.554C188.72 157.051 188.119 155.149 186.155 153.977C184.191 152.805 182.227 153.185 180.738 155.688L178.141 160.093L184.634 163.958Z" fill="black"/>
</svg>
